<?xml version="1.0" encoding="utf-8"?>
<!-- Generator: Adobe Illustrator 28.0.0, SVG Export Plug-In . SVG Version: 6.00 Build 0)  -->
<svg version="1.1" id="Layer_1" xmlns="http://www.w3.org/2000/svg" xmlns:xlink="http://www.w3.org/1999/xlink" x="0px" y="0px"
	 viewBox="0 0 438.23 71.1" style="enable-background:new 0 0 438.23 71.1;" xml:space="preserve">
<style type="text/css">
	.st0{fill:#1D1D1B;}
	.st1{fill:none;stroke:#FFFFFF;stroke-width:3;stroke-miterlimit:10;}
	.st2{fill:none;stroke:#FFFFFF;stroke-miterlimit:10;}
</style>
<g>
	<g>
		<path class="st0" d="M121.42,20.59h5.76v19.16c0,4.42,0.28,9.53,7.74,9.53c7.46,0,7.74-5.11,7.74-9.53V20.59h5.76v21.05
			c0,8.43-5.39,12.62-13.49,12.62c-8.1,0-13.49-4.19-13.49-12.62V20.59z"/>
		<path class="st0" d="M153.43,20.59h5.76v14.97l14.64-14.97h7.09L167.8,33.71l14.05,19.76h-7.18l-10.78-15.7l-4.7,4.65v11.05h-5.76
			V20.59z"/>
		<path class="st0" d="M224.16,53.47h-3.68l-0.88-3.87c-3.08,3.5-5.89,4.65-9.9,4.65c-9.81,0-15.75-7.78-15.75-17.22
			c0-9.35,5.94-17.22,15.75-17.22c7.14,0,13.22,3.82,14.09,11.24h-5.62c-0.6-4.28-4.28-6.54-8.47-6.54c-7.05,0-9.99,6.22-9.99,12.53
			c0,6.31,2.95,12.53,9.99,12.53c5.94,0.14,9.07-3.45,9.21-9.03h-8.75v-4.38h14V53.47z"/>
		<path class="st0" d="M227.19,41.54c0-7.23,4.42-12.53,12.02-12.53c7.6,0,12.02,5.3,12.02,12.53c0,7.32-4.42,12.57-12.02,12.57
			C231.61,54.11,227.19,48.86,227.19,41.54z M245.98,41.54c0-4.1-2.07-8.38-6.77-8.38s-6.77,4.28-6.77,8.38
			c0,4.14,2.07,8.43,6.77,8.43S245.98,45.68,245.98,41.54z"/>
		<path class="st0" d="M250.74,29.66h5.71l6.03,18.28h0.09l5.8-18.28h5.43l-8.52,23.81h-5.89L250.74,29.66z"/>
		<path class="st0" d="M278.55,42.92c0,3.73,2.03,7.05,6.4,7.05c3.09,0,4.88-1.34,5.8-3.96h4.97c-1.11,5.2-5.62,8.1-10.78,8.1
			c-7.51,0-11.65-5.16-11.65-12.53c0-6.77,4.42-12.57,11.51-12.57c7.51,0,12.11,6.77,11.24,13.91H278.55z M290.8,39.47
			c-0.23-3.32-2.39-6.31-5.99-6.31c-3.64,0-6.12,2.76-6.26,6.31H290.8z"/>
		<path class="st0" d="M298.52,29.66h4.93v4.61h0.09c0.6-2.53,3.78-5.25,6.95-5.25c1.24,0,1.47,0.09,1.98,0.14v5.07
			c-0.74-0.14-1.52-0.23-2.26-0.23c-3.55,0-6.45,2.85-6.45,8.15v11.33h-5.25V29.66z"/>
		<path class="st0" d="M314.73,29.66h4.97v3.5l0.09,0.09c1.61-2.63,4.28-4.24,7.41-4.24c5.2,0,8.43,2.72,8.43,8.1v16.35h-5.25V38.5
			c-0.14-3.73-1.52-5.34-4.65-5.34c-3.5,0-5.76,2.76-5.76,6.26v14.05h-5.25V29.66z"/>
		<path class="st0" d="M339.51,29.66h4.97v3.32h0.14c1.61-2.35,3.5-3.96,7.32-3.96c2.9,0,5.62,1.24,6.68,3.96
			c1.8-2.44,3.96-3.96,7.46-3.96c5.02,0,7.97,2.26,7.97,8.01v16.44h-5.25V39.56c0-3.82-0.23-6.4-4.33-6.4
			c-3.55,0-5.07,2.3-5.07,6.35v13.95h-5.25V38.18c0-3.32-1.01-5.02-4.19-5.02c-2.72,0-5.2,2.26-5.2,6.17v14.14h-5.25V29.66z"/>
		<path class="st0" d="M382,42.92c0,3.73,2.03,7.05,6.4,7.05c3.09,0,4.88-1.34,5.8-3.96h4.97c-1.11,5.2-5.62,8.1-10.78,8.1
			c-7.51,0-11.65-5.16-11.65-12.53c0-6.77,4.42-12.57,11.51-12.57c7.51,0,12.11,6.77,11.24,13.91H382z M394.25,39.47
			c-0.23-3.32-2.39-6.31-5.99-6.31c-3.64,0-6.12,2.76-6.26,6.31H394.25z"/>
		<path class="st0" d="M401.97,29.66h4.97v3.5l0.09,0.09c1.61-2.63,4.28-4.24,7.41-4.24c5.2,0,8.43,2.72,8.43,8.1v16.35h-5.25V38.5
			c-0.14-3.73-1.52-5.34-4.65-5.34c-3.5,0-5.76,2.76-5.76,6.26v14.05h-5.25V29.66z"/>
		<path class="st0" d="M424.28,29.66h3.96v-7.14h5.25v7.14h4.74v3.91h-4.74v12.71c0,2.16,0.18,3.27,2.53,3.27
			c0.74,0,1.47,0,2.21-0.18v4.05c-1.15,0.14-2.26,0.28-3.41,0.28c-5.53,0-6.45-2.12-6.59-6.08V33.57h-3.96V29.66z"/>
	</g>
	<rect y="0.25" class="st0" width="4.16" height="70.38"/>
	<g>
		<g>
			<g>
				<g>
					<g>
						<path d="M93.94,38.8l-0.19-0.02l-0.51-1.38c0.24-0.31,0.37-0.8-0.01-1.05c-0.5-0.2-1.9-1.8-2.32-0.76
							c-0.18,0.06-1.29,0.13-1.38,0.33c-0.53-0.84-0.99-1.74-1.32-2.74c0.22-1.16,3.28-2.6,3.28-2.6s-0.87-1.25-1.22-1.96
							c-0.15,0.34-0.3,0.2-0.63,0.35c1.7-3.03,2.07-7.01-0.19-9.87c-0.23-0.5-0.12-1.15-0.35-1.64c-0.39-0.52-0.66-1.53-1.35-1.64
							c0,0.9-0.1,1.78,0.34,2.61c0.46,0.58-0.63,1.07-0.97,0.61c0.65-0.08,0.76-0.21,0.54-0.57c-2.81-0.63-4.39,1.35-7.07,1.66
							c-0.24,0-0.45,0.08-0.58,0.3c-1.65,2.23,2.06,0.71,2.38,2.18c-0.62,0.51-0.71,0.17-1.29,0.03c-0.84,0.03-1.65,0.29-0.6,1
							c-0.64,1-0.61,1.35-1.9,1.44c0.56,0.79,0.44,1.94,0.59,2.84c-0.92,0.17-1.55,0.62-1.57,1.6c-0.42,0.09-0.86-0.12-1.16,0.32
							c-0.58-0.48-1.25-0.57-1.94-0.58c-0.34-0.25-1.16-0.84-2.04-1.3c0.17-0.65,0.34-1.27,0.5-1.84c0.26-0.16,1.19-0.76,1.43-0.91
							c-0.12-0.25-0.61-1.24-0.75-1.51c1.66-5.7,2.2-6.02,3.03-6.15l0.05-0.16l-3.07-0.98l-0.05,0.2c0.77,0.56,1.03,1.5,0.67,2.59
							c-0.82-0.35-1.29-1.13-1.2-1.82c-0.02,0-0.2-0.06-0.2-0.06l-1.03,3.41c0,0,0.15,0.04,0.16,0.05c0.4-0.58,1.11-0.91,1.92-0.77
							c-0.95,3.02-5.22,2.08-4.45-0.49c0.54-1.06,1.58-0.38,1.08,0.73c2.4-0.84,0.98-4.29-1.07-2.23c0.68-1.39,1.06-2.48,0.21-3.82
							c-1.1,0.71-1.39,1.99-1.17,3.7c-1.35-3.09-3.71,0.09-1.79,1.7c-0.35-2.29,2.48-0.78,0.57,1.07c-1.83,1.29-4.07-0.19-4.14-2.47
							c1.05,0.09,1.86,0.72,1.97,1.5c0.02,0,0.19,0.01,0.19,0.01l0.13-3.89c0,0-0.22-0.01-0.24-0.01c-0.16,0.79-1.02,1.46-2.11,1.48
							c0.07-1.2,0.76-2.14,1.65-2.29c0-0.02,0-0.22,0-0.22h-4.49c0,0,0,0.2,0,0.22c0.89,0.15,1.58,1.09,1.65,2.29
							c-1.08-0.02-1.94-0.69-2.11-1.48c-0.02,0-0.24,0.01-0.24,0.01l0.13,3.89c0,0,0.18-0.01,0.19-0.01
							c0.11-0.78,0.91-1.41,1.97-1.5c-0.06,2.28-2.31,3.77-4.14,2.47c-1.92-1.85,0.92-3.36,0.57-1.07c1.92-1.62-0.44-4.79-1.79-1.7
							c0.21-1.71-0.07-2.99-1.17-3.7c-0.85,1.34-0.47,2.43,0.21,3.82c-2.05-2.06-3.46,1.39-1.07,2.23c-0.5-1.11,0.54-1.79,1.08-0.73
							c0.76,2.56-3.51,3.5-4.45,0.49c0.81-0.14,1.52,0.19,1.92,0.77c0.02,0,0.16-0.05,0.16-0.05l-1.03-3.41c0,0-0.19,0.05-0.2,0.06
							c0.09,0.69-0.38,1.47-1.2,1.82c-0.35-1.09-0.1-2.03,0.67-2.59l-0.05-0.2l-3.07,0.98l0.05,0.16c0.84,0.12,1.38,0.44,3.03,6.15
							c-0.14,0.27-0.62,1.25-0.75,1.51c0.24,0.15,1.18,0.75,1.43,0.91c0.14,0.52,0.29,1.08,0.45,1.67
							c-4.13,1.93-3.19,3.24-6.37,2.86c-0.28,0.66-0.55,1.31-1.2,1.75c-0.12-1.01-0.57-1.79-1.16-2.5
							c-0.29-0.34-0.69,0.04-1.13,0.07c-0.86,1.88-1.46,0.18-2.97,1.16c0.06,0.88,0.19,1.75,0.67,2.55
							c-1.13-0.08-2.06-0.38-2.81-0.91c-3.38,3.77-6.9,7.39-9.79,11.54c-1.54,2.04-5.66,0.85-4.58-1.95
							c0.5-2.05,3.46-1.61,3.27,0.42c1.46-1.63,0.52-3.24-1.71-2.88c2.05-0.89,3.28,0.79,5.13-1.52c-1.41,0.03-2.61-0.41-4.02-0.09
							c1.78-1.07,4.23,0.52,5.75-2.43c-1.33,0.14-2.52,0.7-3.9,0.9c8.23-7.85,0.31-8.24,1.32-11.63c-0.64,0.55-1.01,1.09-0.72,1.83
							c-1.84-0.77-4.58-0.54-5.33-2.78c-0.18,3.19,1.22,2.96,3.63,3.62c-1.11-0.13-2.21-0.14-3.25-0.53c0.21,1.43,1.3,1.73,2.58,1.6
							c-1.25,0.69-0.97,2.47,0.31,3.09c-0.81-4.62,6.1-3.03,2.95,1.21c-1.47,2.18-3.59,3.81-5.37,5.72
							c-0.34-0.58-0.69-1.16-1.47-1.08c1.36,1.57-0.17,3.27-0.53,4.89c-0.52,2,1.24,3.7,3.13,3.93c-0.75,0.89-0.81,1.69-0.23,2.42
							c0.57-2.94,4.83-2.27,5.23-5.45c0.07-0.37,0.25-0.67,0.67-0.84c-1.92,2.17,2.69,6.76-1.64,7.3c-0.62,0.02-0.77,0.67-0.43,1.13
							c-1.79-0.09-2.28,0.59-2.56,2.28c0.79-0.2,1.52-0.39,2.27-0.59c-0.78,2.04-2.55-0.12-2.26,3.52c0.72-0.35,1.4-0.71,2.07-1.12
							c0.64,2.04-3.24,1.16-0.33,4.41c0.19-0.61,0.96-1.85,1.36-2.13c-0.36,1.02-0.27,2.21,0.88,2.67c0.05-0.27,0.1-0.52,0.15-0.76
							c0.05,0,0.04,0,0.1,0c0.16,0.68,0.19,1.62,0.85,2.01c0.22,0.09,0.33,0.21,0.41,0.43c0.12,0.38,0.47,0.48,0.81,0.52
							c0.43,0.09,0.54-0.4,0.85-0.59c0.09,0.54,0.73,0.62,1.04,1.08c0.24-2.65-3.27-1.69-2.47-3.44c0.31,1.07,1.31,0.83,2,1.27
							c0.27,0.44,0.93,0.81,1.26,0.19c0.33,0.25,0.62,0.47,0.91,0.68c-0.69-3.15-2.32-1.2-3.34-2.85c0.72,0.03,1.48,1.09,2.25,0.37
							c0.42,0.43,0.74,0.93,1.05,1.43c0.13-1.01-0.25-1.77-1.04-2.33c-0.89-0.55-2.1,0.42-2.87-0.67c-1.04-1.29-1.01-3.09-0.47-4.58
							c0.5-1.15,1.89-1.57,2.53-2.66c-0.18,0.96-0.09,2.63,1,2.94c-0.26-1.78,1-3.38,1.26-5.11c0.33-0.43,0.35-0.77,0.05-1.24
							c-0.54-0.88-0.69-1.95-1.28-2.82c-0.92-1.3-2.06-1.33-0.18-2.7c-1.14,1.78-0.21,1.13,0.78,2.8c0.18-0.56,1.02-1.3-0.03-1.3
							c-1.66-0.82,2.16-2.94,3.03-2.99c0.85-0.07,2.05,0.03,2.69-0.81c-0.4-0.77-0.8-0.88-0.11-1.67c-0.46-0.27-0.87-0.59-0.95-1.21
							c-0.44,0.15-0.83,0.29-1.29,0.45c0.42-0.47,1.65-1.43,1.78-0.37c0.03,0.59,0.62,0.7,1.08,0.85c-0.33,0.49-0.89,0.98-0.38,1.55
							c0.36,0.37,0.58,1.08,1.12,1.17c0.15-0.55,0.29-1.08,0.44-1.63c1.21,1.27-1.21,1.98,2.11,3.11c-0.12-0.69-0.23-1.35-0.14-2.06
							c1.6,1.34-0.69,2.18,3,2.62c-0.41-0.49-0.51-1.03-0.66-1.57c0.62,0.1,1.11,0.69,1.51,1.13c0.38,0.58,0.66,0.89,1.53,0.33
							c0.04,0.1,0.05,0.24,0.12,0.3c0.39,0.3,0.23,0.66,0.23,1.05h0.11c0.51-0.52,0.55-1.11,0.39-1.76
							c-0.36-1.22-1.85-0.25-2.37-1.5c0.7,0.48,1.4,0.76,2.18,0.36c0.43,0.41,0.61,0.71,0.82,1.28c0.35-1.32-0.05-2.66-1.44-2.26
							c-0.43,0.15-0.61,0.12-1.04-0.26c0.65,0.22,1.07-0.11,1.48-0.4c0.09,0.12,0.14,0.25,0.2,0.25c0.39,0.02,0.64,0.26,0.89,0.55
							c0.13-1.13-0.99-2.04-2.12-1.75c-0.28,1.38-1.44,0.6-2.36,0.42c-1.43-0.84-2.18-2.43-3.44-3.48c0.13-1.55-1.16-2.78-2.71-2.69
							c1.4-0.61,3.05,0.59,3.16,2.05c0.05,0.6,0.42,0.97,0.79,1.42c4.72-9.49,19.95-11.97,28.69-5.95l0,0
							c0.74,0.68,1.55,1.24,2.33,1.96c0.3-0.91,0.12-1.98,1.47-1.43L78,29.79c-0.28-0.77,0.3-1.63,1.1-1.69v0.6
							c-0.35,0.06-0.63,0.4-0.57,0.76c0.27-0.06,0.52,0.3,0.37,0.53c0.25,0.14,0.61,0.08,0.8-0.12c0.22,0.01,0.45,0.03,0.67,0.06
							c-0.31,0.73-1.38,0.98-1.98,0.44l0,0c0.12,0.16-0.4,1.77-0.42,1.96c-0.06,0.24-0.28,0.39-0.51,0.38
							c0.1,0.16,0.18,0.29,0.26,0.43c0.38-0.21,0.92-0.2,0.87-0.74c0.07-0.31-0.13-1.72,0.31-1.6c0.18,0.54-0.16,1.16,0.24,1.69
							c1.26-0.31,0.71-1.45,2.24-1.75C82,30.69,83.28,30.39,83.6,31c-1.34-0.36-3.06,0.01-3.36,1.54c-1.39,0.33-2.56,1.32-4.04,1.32
							c-1.18,0.06-1.49,1.48-1.54,2.45c-0.2,1.11-0.26,2.26-0.75,3.3c-0.24,0.39-0.04,0.85,0.09,1.21c0.45,0.24,0.77,1.8,0.84,2.36
							c0,1.02,1.75,1.36,2.46,1.99c0.2-1.28-2.22-0.91-1.88-2.7c0.43,1.18,1.37,1.42,2.4,2.01c-0.32-1.2-0.42-3.18-2.09-2.93
							c-0.64-0.89,0.3-0.95-0.01-2.01c0.48,0.15,0.71,0.32,0.83,0.61c-0.15-0.05-0.28-0.09-0.48-0.15c0.06,0.76,0.71,0.94,1.22,1.46
							c-0.08-1.24-0.2-2.02-1.35-2.62c-0.65-0.6,0.1-1.97,0.06-2.8c-0.02-0.24,1.54-1.02,1.78-0.95c1.16,0.15,2.37-0.03,3.49,0.26
							c1.12,0.35,0.16-2.08,1.96-0.8c-1.31-0.39-0.51,1.04-1.46,1.12c-0.66,0.01-1.22-0.06-1.91-0.08c2.37,5.29,7.64,3.74,9.09,8.45
							c1.21-1.07,0.39-1.05,0.05-2.17c2.74,1.83-2.55,3.94-0.56,7.14c-0.13-0.36,1.12-1.86,1.26-2.16c0.23-0.34,0.61-0.36,0.86-0.11
							l0.4-0.82c-0.74-0.4,0.6-2.13,0.69-2.62c0.14-0.3,0.45-0.44,0.7-0.31l0.37-1.03c-0.7-0.19-0.17-1.88-0.23-2.35
							c-0.98-0.88-1.78-1.99-2.54-3.02l0.47-0.08c-0.05,0.23,0.03,0.48,0.23,0.62c0.34,0.13,1.62,1.38,2.03,1.08l0.2,0.55
							c-0.33,0.09-0.38,0.55-0.39,0.85c0.17,0.15,0.36,0.28,0.53,0.43c0.02-0.11,0.01-0.61,0.11-0.69c0.15,0.2,0.43,0.2,0.6,0.04
							c0.16,0.08-0.04,1.17-0.02,1.31c0.19,0.2,0.37,0.42,0.54,0.64C94.17,40.81,94.79,38.89,93.94,38.8z M80.14,20.97
							c0.18-0.02,0.33-0.03,0.53-0.06c-0.35-0.25-0.01-0.6,0.28-0.35C81.63,21.09,80.26,21.96,80.14,20.97z M52.71,25.96l-1.44-0.92
							l0.76-1.54l2.08,0.74L52.71,25.96z M57.43,24.77c-2.26,0.46-2.74-2.03-0.47-2.44C59.21,21.87,59.69,24.36,57.43,24.77z
							 M62.53,24.58l-2.23-1.57l2.23-1.57l2.23,1.57L62.53,24.58z M69.62,23.89c-0.26,1.59-3.83,0.9-3.49-0.67
							C66.4,21.63,69.96,22.31,69.62,23.89z M70.95,24.25l2.08-0.74l0.76,1.54l-1.44,0.92L70.95,24.25z M88.1,16.95
							c0.41,0.45,0.59,0.95,0.59,1.5C88.29,18.32,88.12,17.89,88.1,16.95z M86.22,19.9c-0.55,0.38-1.04,0.93-1.61,0.18
							c-0.13,0.03-0.24,0.05-0.37,0.07C85.08,18.86,85.01,19.08,86.22,19.9z M81.62,24.57c0.37,0.13,0.71,0.32,1.09-0.04
							c-0.36,0-0.47-0.25-0.57-0.49c-0.17-1.22,1.81-0.79,2.55-0.7c1.86,1.13,5.03,0.41,3.93-2.28c0.86,0.53,0.57,2.01-0.09,2.58
							c-1.72,0.93-3.35,0.23-5.07,2.05c-0.26-0.83-1.25-0.79-1.61,0.13c-0.33,0.02-0.41,0.02-0.72,0.04
							C81.08,25.37,81.47,25.02,81.62,24.57z M88.12,32.54c-0.08,0.1-0.23,0.3-0.23,0.3c-1.43-1.63-6.26-3.51-8.35-3.2
							c0,0,0.03-0.24,0.04-0.37l-0.01,0.01l0.79-0.5l-0.68-0.56c0.01-0.08-0.43-2.83-0.43-2.83l1.2-0.04c0,0-0.43,0.5-0.45,0.9
							c0.07,0.05,0.12,0.12,0.17,0.2c0.24-0.1,0.5-0.6,0.5-0.6l0.11,1.62c0,0-0.33-0.47-0.57-0.55c-0.02,0.06-0.04,0.12-0.09,0.16
							c0.35,1.08,1.92,1.14,1.92,0.22c-0.05-0.48-0.58-0.4-0.55,0.11c-0.86-0.69,0.3-1.78,0.78-0.68c-0.06-0.63-0.01-0.99,0.48-1.3
							c0.32,0.41,0.28,0.8-0.07,1.41c1.06-0.98,1.46,0.68,0.47,0.93c0.49-0.88-0.91-0.6-0.4,0.32c0.47,0.72,1.61,0.61,2.01-0.17
							c-0.03-0.05-0.05-0.1-0.06-0.15c-0.4-0.08-0.99,0.26-0.99,0.26l0.55-1.5c0,0,0.23,0.64,0.56,0.84
							c0.06-0.06,0.14-0.1,0.22-0.12c0.06-0.39-0.33-1.01-0.33-1.01l1.84,0.71c0,0-0.73,0.18-0.96,0.51
							c0.05,0.07,0.07,0.15,0.08,0.23c0.38,0.08,1-0.24,1-0.24l-0.66,1.46c0,0-0.19-0.64-0.53-0.85c-0.04,0.03-0.1,0.05-0.15,0.07
							c-0.26,0.84,0.5,1.67,1.34,1.46c1.01-0.31,0.21-1.46-0.07-0.5c-0.55-0.85,0.93-1.78,1-0.36c0.18-0.68,0.42-0.99,0.95-1.07
							c0.14,0.55-0.08,0.85-0.57,1.27c1.14-0.48,1.19,1.1,0.09,1.01c0.38-0.35,0.05-0.76-0.33-0.45c-0.66,0.69,0.57,1.67,1.53,1.18
							c0-0.06,0.02-0.12,0.04-0.17c-0.24-0.17-0.8-0.18-0.8-0.18l1.18-0.87c0,0-0.14,0.53-0.03,0.8c0.09-0.01,0.18,0,0.26,0.03
							c0.25-0.25,0.27-0.94,0.27-0.94l0.88,1.1c0,0-2.21,1.02-2.6,1.31l-0.61-0.06l0.3,0.86L88.12,32.54z M92.45,37.54
							c-0.03,0-0.05-0.01-0.08-0.03l-1.29-0.88c-0.08-0.06-0.11-0.17-0.06-0.27c0.24-0.01,0.51-0.14,0.47-0.43
							c0.1,0.13,1.49,0.87,1.38,1.09C92.59,37,92.36,37.25,92.45,37.54z"/>
						<path d="M76.77,31.84c0.11,0.1,0.2,0.2,0.29,0.3c0.14,0.04,0.37,0.12,0.42-0.08l0.33-1.28c-0.15,0.14-0.4,0.15-0.53-0.03
							c-0.1-0.12-0.12-0.29-0.04-0.41C77.08,30.31,76.82,31.76,76.77,31.84z"/>
					</g>
				</g>
			</g>
			<g>
				<g>
					<path d="M57.84,67.1c-3.65-1.45-6.31,2.09-3.32,2.69c-3.27,0.14-2.64-4.46-3.99-4.19c1.18,1.27,1.18,3.65,2.27,4.31
						c2.2,0.93,4.48,1.09,6.84,0.98C58.45,69.84,58.16,68.51,57.84,67.1z"/>
				</g>
			</g>
			<g>
				<g>
					<path d="M68.99,69.74c2.97-0.59,0.34-4.13-3.32-2.69c-0.32,1.41-0.61,2.73-1.8,3.79c2.35,0.11,4.64-0.04,6.84-0.98
						c1.09-0.66,1.09-3.03,2.27-4.31C71.63,65.28,72.26,69.89,68.99,69.74z"/>
				</g>
			</g>
			<g>
				<g>
					<path d="M93.02,40l-0.09,1.19c-0.01,0.07,0.02,0.14,0.06,0.18c0.17-0.14,0.43-0.08,0.55,0.09c0.19-0.05,0.13-0.65,0.17-0.79
						C93.49,40.43,93.26,40.21,93.02,40z"/>
				</g>
			</g>
			<g>
				<g>
					<path d="M92.71,43.74c-0.17,0.03-0.36-0.06-0.43-0.22c-0.22-0.09-0.81,1.56-0.91,1.67c0.29-0.18,0.66,0.12,0.57,0.46
						c0.03-0.02,0.06-0.05,0.07-0.09C92.03,45.4,92.95,43.88,92.71,43.74z"/>
				</g>
			</g>
			<g>
				<g>
					<path d="M102.45,38.55c-0.76,0.23-1.08,0.87-1.37,1.59c-1.92-2.99-5.57-5.06-6.13-8.73c0.43-2.93,4.31-2.26,3.52,0.79
						c2.01-1.08,1.04-3.1-0.86-3.45c2.06,0.16,3.19,1.91,4.6-0.99c-1.22,0.44-3.08,0.13-3.72,0.03c2.57-0.35,3.96-0.32,3.88-3.51
						c-0.87,1.91-3.29,1.94-5.05,2.56c0.11-0.85-0.15-1.37-0.83-1.64c0.7,4.66-8.13,3.14,1.57,13.19c-1.19-0.66-2.57-0.43-3.73-1.17
						c0.9,2.42,2.41,2,4.4,2.84c-2.13-0.01-2.79,2.07-1.21,3.06c-0.41-1.6,1.79-2.71,2.9-1.46c2.52,3.24-2.09,7.73-6.18-0.38
						c0.03,0.45-0.28,0.85-0.72,0.71l-0.46,1.28c0.94,0.35-0.5,2.15-0.6,2.68c-0.16,0.35-0.53,0.45-0.8,0.26l-0.45,0.94
						c0.57,0.52-0.96,1.99-1.13,2.45c-0.18,0.26-0.49,0.35-0.72,0.21l-0.16,0.34c0.03,0.04,0.06,0.07,0.06,0.07
						c1.03,1.22,1.51,2.17,1.23,3.47c0.84-0.72,1.21-2.71,0.54-3.8c0.76,0.79,1.86,1.36,2.3,2.37c0.44,1.84,0.1,3.66-1.15,5.11
						c-0.53,0.53-0.39,0.81-0.46,1.47c-0.35,1.04-1.59,1.12-2.06,2c-0.33,0.77-0.87,1.4-1.11,2.21c1.41-0.22,1.17-2.18,2.5-2.58
						c-0.54,0.82-1.06,1.57-1.43,2.53c1.11-0.29,3.21-0.59,2.86-2.16c-0.26-0.72,0.44-1.2,0.4-1.89c0.88-0.32,0.68-0.67,1.1-1.36
						c0.2,0.42,0.2,0.77,0.18,1.22c-0.11-0.23-0.18-0.37-0.25-0.53c-0.62,0.85-0.1,1.67-0.19,2.57c3.07-2.75-1.01-2.73,2.18-8.83
						c0.73-1.21-2.08-1.08-2.29-3.82c-0.2-1.19,0.84-2.16,1.07-3.29c1.23,2.18,5.52,2.11,4.93,4.9c0.86-0.65,0.83-1.84,0.49-2.74
						C104.52,45.51,101.02,41.44,102.45,38.55z"/>
				</g>
			</g>
			<g>
				<g>
					<path d="M90.43,47.27c-0.1-0.1-0.26-0.15-0.36,0.01c-0.04,0.18-1.25,1.55-0.94,1.73c0.05,0,0.1,0.01,0.15,0.03
						c0.1,0.04,0.18,0.11,0.22,0.22c0.07,0.01,0.15-0.03,0.2-0.1c0.03-0.11,1.12-1.53,1-1.63C90.58,47.48,90.47,47.4,90.43,47.27z"
						/>
				</g>
			</g>
			<g>
				<g>
					<path d="M88.64,49.32c0.02,0.03,0.04,0.06,0.06,0.09l0.02-0.04L88.64,49.32z"/>
				</g>
			</g>
			<g>
				<g>
					<path d="M45.19,52.07c-1.19,1.46-3.25,0.57-4.55-0.33c-1.06-0.78,1.22-1.99,0.49-4.58c1.02,1.64-0.83,3.05,2.02,3.97
						c-0.82-1.22-0.71-2.8-1.02-4.21c-0.04-0.24-0.16-0.48,0.04-0.73c0.1-0.34,0.12-0.79-0.34-0.84c-3.18-1.83-2.54-0.94-5.64-1.36
						c-0.76,1.34,0.86,2.54,0.6,3.85c-0.23,0.64,0.75,0.62,0.74,1.24c0.22,0.98,0.11,2.35-1.01,2.73c-0.55,0.33-0.11,1.04,0.37,1.21
						c-0.99,1.78-0.23,2.06,1.28,2.95c0.01-0.69,0.02-1.29,0.31-1.87c2.08,1.38-1.02,1.61,3.11,3.29c-0.42-0.69-0.41-1.44-0.47-2.13
						c0.39,0.09,0.77,0.18,1.16,0.27c0.45,1.91,1.48,2.08,3.3,1.91c-0.65-0.65-0.84-1.49-1.31-2.16c0.55,0.19,1.09-0.19,1.56,0.23
						c0.44,0.08,0.93,0.17,1.36-0.03C46.53,54.35,45.87,53.23,45.19,52.07z"/>
				</g>
			</g>
			<g>
				<g>
					<path d="M88.19,43.6c-1.43,1.01-2.1-0.62-5.19,1.28c-0.57,0.09-0.69,0.33-0.59,0.88c-0.63,1.36-0.65,3.01-1.72,4.16
						c2.31-0.65,1.8-1.53,2.36-3.29c-0.11,2.38,0.01,2.35,0.87,3.98c-1.78,1.25-4.7,0.2-5.67,2.63c0.27,0.31,0.62-0.01,0.98,0.08
						c-0.23,0.28-0.33,0.61-0.7,0.86c0.08-0.23,0.13-0.38,0.18-0.53c-0.67-0.22-1.22,1.3-1.71,1.79c4.76-0.96-0.58-2.36,8.81-3.45
						c1.66-0.78-1.57-2,1.69-4.07c0.29-1.13,0.47-2.29,1.08-3.3C88.72,44.3,88.49,43.83,88.19,43.6z"/>
				</g>
			</g>
			<g>
				<g>
					<path d="M43.66,19.86c-0.73,0.19-2.03,0.8-2.03,0.8c-0.63-0.24-0.36,0.07-0.27,0.38c-2.02,0.37-4.01,0.9-5.61,2.24
						c-0.29,0.21-0.42,0.08-0.51-0.33c-0.19-0.29-0.28,0.21-0.31,0.34c0,0-1.21,0.3-1.74,0.75c0.37,0.62,0.9,1.59,1.74,1.27
						c0.02-0.32,0.04-0.62,0.06-0.96c-0.36-0.06-0.69-0.12-1.06-0.18c0.43-0.33,0.96-0.41,1.38-0.24c-0.36,1.54,0.29,2.62,1.93,2.71
						c0.5-0.75,0.95-0.86,1.44-0.33c-2.17-0.22-0.56,2.07,0.55,1.29c0.29-0.43,1.23-0.8,0.96-1.4c-1.72-1.26-1.6,0.6-1.92-2.51
						c-0.07-0.01-0.15-0.01-0.22-0.02c-0.16,0.59-0.74,1.05-1.22,0.49c-0.16-0.19-0.31-0.36-0.58-0.41
						c1.18-0.94,2.58,0.42,2.49-1.79c1.31,1.65,1.43-0.18,2.73-0.21c-0.06,1.3-0.33,1.2-1.45,1.13c0.37,0.28,1.77,1.68,0.95,1.81
						c-0.34-0.87-0.91-1.72-1.88-1.9c-0.78,0.78-0.4,1.66-0.28,2.56c0.69-0.24,1.29-0.69,2.02-0.63c0.25,0.72-0.91,1.12-0.25,1.83
						c1.12,0.18,2.34,0.19,1.98-1.4c-0.36-0.22-0.73-0.37-1.11,0.03c0.02-0.62,0.62-0.72,1.09-0.6c1.03-1.1,0.69-2.56-0.42-3.44
						c0.29-0.43,0.6-0.73,1.14-0.84c-0.18,0.37-0.56,0.51-0.64,0.85c0.25,0.3,0.48,0.59,0.71,0.87
						C43.92,21.75,44.08,20.81,43.66,19.86z"/>
				</g>
			</g>
			<g>
				<g>
					<path d="M46.51,28.56c0.16-2.41-0.91-3.61-3.25-3.98c0.01-0.03,0.01-0.07,0.02-0.1c0.97-0.05,1.94-0.04,2.85,0.55
						c-0.24-0.75-0.85-1.85-1.73-1.75c0.32-0.66,0.31-1.1-0.01-1.5c-0.15,0.46-0.44,0.75-0.92,0.77c0.1,0.83-0.17,1.53-0.63,2.14
						c0.19,0.91-0.07,1.68-0.67,2.4c0.9,1.61,2.42,2.83,3.1,4.57c1.5-2.81-0.1-3.75-2.17-5.29C44.44,26.85,45.78,27.3,46.51,28.56z"
						/>
				</g>
			</g>
			<g>
				<g>
					<path d="M39.01,28.24c-0.61-0.35-1.3-0.44-1.71-0.95c-0.11-0.24-0.32-0.33-0.54-0.38c-0.71-0.15-1.37-0.39-1.73-0.98
						c-0.52,0.16-0.84,0.14-1.31-0.06c-0.04,0.59,0.46,1.18,1.12,0.96c-0.53,0.77-0.24,1.47-0.04,2.26c0.38-0.8,0.96-1.28,1.61-1.68
						c-0.5,0.85-1.38,1.7-0.98,2.76c0.28,0.67,0.69,1.45,1.38,1.73c-0.35-1.33,0.54-2.48,0.96-3.68c0.01,2.76-1.56,4.26,2.23,5.28
						C38.98,31.88,39.64,29.91,39.01,28.24z"/>
				</g>
			</g>
			<g>
				<g>
					<path d="M50.19,57.28c-4.57-4.26-6.28-9.79-5.88-15.93c-0.11-0.06-0.25-0.12-0.48-0.24c-0.77,6.52,1.75,13.09,6.81,17.29
						C51.16,57.92,50.46,57.64,50.19,57.28z"/>
				</g>
			</g>
			<g>
				<g>
					<path d="M91.48,22.99c-0.43,0.84,0.82,1.19,0.84,1.98c-0.33-0.26-0.61-0.49-0.93-0.74c-0.4,1.55,1.43,2.05,2,3.27
						C94.12,25.24,93.72,23.86,91.48,22.99z"/>
				</g>
			</g>
			<g>
				<g>
					<path d="M41.95,27.07c-0.24,0.05-0.47-0.29-0.76-0.02c0.27,0.75,1.27,2.26,0.04,2.61c-1.21,0.07-1.03-1.45-1.39-2.3
						c-0.22,0.25-0.4,0.46-0.6,0.68c0.25,0.85,0.5,1.69,0.77,2.6c0.2-0.14,0.37-0.26,0.55-0.39c0.85,0.6,1.62,0.19,1.9-0.75
						c0.25,0.06,0.48,0.17,0.66-0.01C42.72,28.67,42.34,27.88,41.95,27.07z"/>
				</g>
			</g>
			<g>
				<g>
					<path d="M90.76,18.18c0.14-0.65-0.03-1.27-0.44-1.51c0.01,0.57-0.23,0.99-0.75,1.21c-0.26,1.14,0.93,1.08,1.68,1.32
						c-0.01,0.03-0.01,0.07-0.02,0.1c-0.38-0.02-0.76-0.04-1.16-0.06c0.43,1.37,2.02,0.71,3.02,1.33
						C92.52,19.47,92.1,18.39,90.76,18.18z"/>
				</g>
			</g>
			<g>
				<g>
					<path d="M91.32,25.65c-0.45,0.86,0.18,1.69,0.4,2.5c-0.03,0.01-0.06,0.02-0.09,0.04c-0.24-0.37-0.48-0.74-0.72-1.1
						c-0.03,0.01-0.06,0.01-0.09,0.02c-0.28,1.21,0.57,2.27,1.09,3.3C92.82,28.79,92.78,26.94,91.32,25.65z"/>
				</g>
			</g>
			<g>
				<g>
					<path d="M90.57,20.26c0.52,1.24,1.36,0.95,1.9,1.76c-0.46-0.15-0.86-0.28-1.25-0.41c-0.03,1.32,1.64,1.46,2.56,1.97
						C93.63,21.44,92.59,20.63,90.57,20.26z"/>
				</g>
			</g>
			<g>
				<g>
					<path d="M84.18,16.44c0.37,0.68,0.85,1.34,1.59,1.57c0.57,0,1.39,0.36,1.86,0.04C87.64,16.24,85.43,16.48,84.18,16.44z"/>
				</g>
			</g>
			<g>
				<g>
					<path d="M79.5,43.78c-0.47-0.04-0.91-0.07-1.43-0.11c0.02,0.25,0.03,0.44,0.05,0.64c0.28,0.07,0.53,0.13,0.79,0.2
						c0.08,1.49-0.74,1.51-1.85,0.89C76.73,47.29,79.77,47.1,79.5,43.78z"/>
				</g>
			</g>
			<g>
				<g>
					<path d="M79.25,40.43c-0.5-0.15-0.99-0.33-1.44-0.64c0.32-0.4,0.62-0.77,0.94-1.16c-0.09-0.26-0.18-0.54-0.31-0.89
						c-1.68,2.06-1.69,2.35,0.87,3.24C79.28,40.76,79.27,40.61,79.25,40.43z"/>
				</g>
			</g>
			<g>
				<g>
					<path d="M70.41,28.55c-0.28,0.83-1.01,1.24-1.43,1.94c0.67-0.05,1.06-0.26,1.45-0.79c0.07,0.2,0.13,0.38,0.19,0.56
						c0.28-0.02,0.53-0.04,0.77-0.06C71.66,29.2,71.09,29.09,70.41,28.55z"/>
				</g>
			</g>
			<g>
				<g>
					<path d="M75.31,32.02c-0.31,0.18-0.97,0.11-0.91,0.6c0,0.72,0,1.45,0,2.17c0.03,0.01,0.06,0.02,0.09,0.03
						C74.73,34.16,75.99,32.53,75.31,32.02z"/>
				</g>
			</g>
			<g>
				<g>
					<path d="M84.86,14.98c0.02,1.23,1.29,1.23,2.19,1.34c0.03-0.04,0.05-0.07,0.08-0.11C86.42,15.19,86.12,14.99,84.86,14.98z"/>
				</g>
			</g>
			<g>
				<g>
					<path d="M83.85,13.28c-0.05,0.87,0.68,1.37,1.88,1.3C85.42,13.7,84.8,13.23,83.85,13.28z"/>
				</g>
			</g>
			<g>
				<g>
					<path d="M78.27,22.2c0.28,1.37,1.91,0.37,2.77,0.09C80.05,21.83,79.25,22.41,78.27,22.2z"/>
				</g>
			</g>
			<g>
				<g>
					<path d="M82.9,11.9c0.25,0.87,0.59,1.06,1.49,0.93C84.11,12.11,83.64,11.82,82.9,11.9z"/>
				</g>
			</g>
			<g>
				<g>
					<path d="M82.12,10.68c0.3,0.74,0.74,1.01,1.26,0.76C83.03,10.7,82.85,10.6,82.12,10.68z"/>
				</g>
			</g>
			<g>
				<g>
					<path d="M79.51,35.75c-0.12-0.13-0.37-0.13-0.56-0.18c-0.02,0.03-0.04,0.05-0.06,0.08c0.23,0.4,0.47,0.8,0.69,1.18
						C80.49,36.83,79.72,36.07,79.51,35.75z"/>
				</g>
			</g>
			<g>
				<g>
					<path d="M77.37,35.49c-0.4,0.39-1.33,0.51-1.08,1.19c0.46-0.27,0.94-0.47,1.35-0.8C77.55,35.75,77.48,35.64,77.37,35.49z"/>
				</g>
			</g>
			<g>
				<g>
					<path d="M81.26,9.33c0.06,0.52,0.61,0.98,1.03,0.91C82.42,9.76,81.74,9.14,81.26,9.33z"/>
				</g>
			</g>
			<g>
				<g>
					<polygon points="71.95,36.48 71.95,36.49 71.96,36.48 					"/>
				</g>
			</g>
			<g>
				<g>
					<path d="M36.61,17.95c-0.25,0.23,0.12,0.62,0.37,0.38C37.23,18.09,36.85,17.71,36.61,17.95z"/>
				</g>
			</g>
			<g>
				<g>
					<path d="M36.94,18.64c-0.25,0.23,0.12,0.62,0.37,0.38C37.56,18.78,37.18,18.4,36.94,18.64z"/>
				</g>
			</g>
			<g>
				<g>
					<path d="M36.8,16.94c0,0-0.67-0.8-0.67-0.8c0.02-0.02,0.03-0.05,0.03-0.08l0.64,0.07l-0.31-0.78l-0.46,0.38
						c-0.02-0.01-0.05-0.03-0.08-0.03l-0.05-0.76c-0.19,0.08-0.58,0.23-0.77,0.3l0.48,0.59c-0.01,0.02-0.02,0.05-0.03,0.07l0,0
						l-0.6,0.04l0.31,0.78l0.42-0.49c0.02,0.01,0.05,0.03,0.08,0.03c0,0,0.06,1.04,0.06,1.05l0,0
						C35.97,18.23,37.36,17.67,36.8,16.94z"/>
				</g>
			</g>
			<g>
				<g>
					<path d="M33.89,19.4c-0.38-0.01-0.39,0.59-0.01,0.59C34.27,20,34.28,19.4,33.89,19.4z"/>
				</g>
			</g>
			<g>
				<g>
					<path d="M33.83,20.17c-0.38-0.01-0.39,0.59-0.01,0.59C34.21,20.77,34.21,20.17,33.83,20.17z"/>
				</g>
			</g>
			<g>
				<g>
					<path d="M35.06,17.52c-0.38-0.01-0.39,0.59-0.01,0.59C35.44,18.13,35.45,17.52,35.06,17.52z"/>
				</g>
			</g>
			<g>
				<g>
					<path d="M34.13,18.69c-0.38-0.01-0.39,0.59-0.01,0.59C34.51,19.3,34.52,18.69,34.13,18.69z"/>
				</g>
			</g>
			<g>
				<g>
					<path d="M41.16,18.46l-0.65,0.02c0.17,0.27,0.23,0.4,0.24,0.61c-0.13-0.05-0.29-0.19-0.46-0.42l0.09,1.03
						c0.12-0.18,0.22-0.31,0.37-0.37c0,0.98-0.78,1.34-1.06,0.65c-0.05-0.3,0.21-0.49,0.47-0.22c0.05-0.62-0.45-0.61-0.67-0.35
						c0.26-0.6,0.16-0.99-0.37-1.32c-0.33,0.56-0.2,0.92,0.22,1.35c-0.41-0.21-0.78,0.14-0.41,0.59c0.08-0.39,0.42-0.3,0.5,0.01
						c0.06,0.87-1.46,1.11-1.62,0.19c0.14-0.09,0.47-0.06,0.82,0.18l-0.3-1.01c-0.15,0.36-0.36,0.5-0.61,0.61
						c-0.02-0.3,0.2-0.88,0.2-0.88c-0.3,0.12-0.91,0.36-1.22,0.48c0,0,0.56,0.28,0.75,0.51c-0.26,0.09-0.5,0.13-0.86-0.03l0.47,0.94
						c0.1-0.42,0.32-0.66,0.48-0.69c0.51,0.79-0.76,1.65-1.31,0.98c-0.16-0.28,0.03-0.58,0.36-0.35c-0.05-0.58-0.55-0.58-0.71-0.15
						c0.01-0.6-0.14-0.96-0.76-1.14c-0.16,0.6,0.04,0.96,0.63,1.21c-0.34-0.04-0.71,0.29-0.25,0.71c0-0.38,0.32-0.42,0.49-0.16
						c0.27,0.7-0.55,0.96-1.22,0.26c0.15-0.06,0.31-0.03,0.52,0.02l-0.64-0.81c0.03,0.29,0.01,0.49-0.05,0.62
						c-0.14-0.16-0.18-0.3-0.24-0.61l-0.49,0.43c0.47,0.29,0.99,0.76,1.63,1.67c0.85-0.84,4.28-2.27,5.6-2.23
						C40.96,19.69,41.02,18.99,41.16,18.46z"/>
				</g>
			</g>
			<g>
				<g>
					<path d="M56.33,44.72c-1.49,0.44-2.87-1.74-4.19-0.55c-0.53,0.47-0.18,1.5,0.53,1.53c0.63,0.02,0.81-0.85,0.25-1.12
						c1.23-0.42,0.64,1.56,0.19,2.07c-1.41-0.73-1.64,1.54-0.25,0.95c0.06,0.41,0.08,0.81-0.02,1.2c-1.52-0.33-1.12,1.86,0.02,0.98
						c0.33,0.31,0.48,0.8,0.52,1.26c-1.53,0.22-0.31,2.18,0.4,0.87c0.46,0.27,0.97,0.56,1.44,0.83c-1.15,1.39,0.91,2,0.8,0.64
						c0.77,0.33,3.79,1.26,2.58-0.55c-3.96,0.13-5.98-4.03-3.79-7.21c1.33,0.61,6.02-1.67,5.63,0.65c0.25,0.26,0.32,0.28,0.87,0.28
						C62.68,43.43,58.01,44.36,56.33,44.72z"/>
				</g>
			</g>
			<g>
				<g>
					<path d="M60.89,47.95c-0.13,0.01-1.03,7.64-1.5,7.2c0.09-0.5,1.19-7.2,1.19-7.2s-0.33-0.05-0.49-0.07
						c-0.03,0.16-0.06,0.35-0.06,0.35l-1.82-2.39l-0.24,0.11l1.95,2.56l-0.13,0.45c-0.18-0.12-2.06-2.73-2.25-2.97l-0.38-0.03
						l2.53,3.31l-0.13,0.44l-2.84-3.73l-0.36,0l3.08,4.05l-0.16,0.58l-3.38-4.59l-0.45,0.01l3.74,4.93l-0.14,0.46l-4.12-5.39
						l-0.07,0.41c0,0,3.84,5.05,4.07,5.38c-0.2,0.62-0.05,0.68,0.22,1.19c0.15,0.57-0.25,1.47-0.93,1.26
						c-0.06-0.02-0.13-0.04-0.21-0.07c-0.11,0.29-0.27,0.81-0.02,0.99c0,0,1.28,0.55,1.28,0.55l1.65-1.22l0.45-6.62L60.89,47.95z"/>
				</g>
			</g>
			<g>
				<g>
					<path d="M54.67,46.95c0,0-0.08,0.25-0.11,0.36c0.29,0.38,3.78,5.01,3.78,5.01l0.27-0.13L54.67,46.95z"/>
				</g>
			</g>
			<g>
				<g>
					<path d="M54.51,48.01c0,0-0.06,0.44,0.15,0.7c0.91,1.16,1.81,2.33,2.69,3.5c0.13,0.02,0.38,0.07,0.38,0.07L54.51,48.01z"/>
				</g>
			</g>
			<g>
				<g>
					<path d="M61.54,46.77c-0.44-0.04-0.9-0.12-1.33-0.16c-0.83,0.72,0.1,1.14,0.72,1.08C61.47,47.83,62.18,47.12,61.54,46.77z"/>
				</g>
			</g>
			<g>
				<g>
					<path d="M61.4,65.44c-0.13,0.59,0.8,0.78,0.91,0.19C62.45,65.04,61.52,64.85,61.4,65.44z"/>
				</g>
			</g>
			<g>
				<g>
					<path d="M61.11,61.66c-0.16,0.73,0.99,0.97,1.13,0.23C62.4,61.16,61.25,60.93,61.11,61.66z"/>
				</g>
			</g>
			<g>
				<g>
					<path d="M57.17,59.71c-0.16,0.73,0.99,0.97,1.13,0.23C58.46,59.21,57.31,58.97,57.17,59.71z"/>
				</g>
			</g>
			<g>
				<g>
					<path d="M63.85,67.36c-0.31-0.19-0.71-0.38-1.09-0.38c-0.2,0-0.4,0.05-0.57,0.19c1.2,0.48,0.77,2.29-0.4,2.3
						c-1.17-0.01-1.6-1.82-0.4-2.3c-0.17-0.14-0.36-0.19-0.57-0.19c-0.38,0-0.78,0.19-1.09,0.38c-0.35-0.45-0.69-0.9-1.34-0.97
						c0.36,3.33,1.88,5,3.4,5c1.52,0,3.04-1.67,3.4-5C64.53,66.46,64.19,66.9,63.85,67.36z M61.79,70.95
						c-1.12,0-2.38-1.19-2.85-3.83c0.14,0.13,0.28,0.3,0.44,0.52l0.25,0.32l0.34-0.21c0.15-0.09,0.29-0.17,0.42-0.22
						c-0.15,0.31-0.2,0.67-0.13,1.04c0.15,0.79,0.78,1.35,1.53,1.35c0.75,0,1.38-0.56,1.53-1.35c0.07-0.38,0.02-0.74-0.13-1.04
						c0.13,0.05,0.28,0.13,0.42,0.22l0.34,0.21l0.25-0.32c0.16-0.21,0.3-0.38,0.44-0.52C64.17,69.75,62.91,70.95,61.79,70.95z"/>
				</g>
			</g>
			<g>
				<g>
					<path d="M52.8,55.93c-0.21-0.13-0.47-0.09-0.61,0.09c-0.5,0.58,1.23,1.38,1.47,1.7c0.21,0.17,0.51,0.14,0.66-0.05
						C54.82,57.06,53.06,56.26,52.8,55.93z"/>
				</g>
			</g>
			<g>
				<g>
					<path d="M53.87,56.19c0.89,0.48,1.66,1.76,0.28,2.13c-0.52,0.11-1.06-0.46-1.44-0.73c0.01,0.75,0.63,1.36,1.39,1.36
						C56.05,58.96,55.79,55.86,53.87,56.19z"/>
				</g>
			</g>
			<g>
				<g>
					<path d="M55.62,54.47c-0.76-0.25-3.14,0.29-3.94,0.32c-0.54,0.07-0.93,0.55-0.88,1.1c0.12,0.58,0.1,3.1,0.53,3.57
						c0.43,0.82,2.94,3.03,3.62,1.99c-1.23-0.62-3.3-2.15-2.5-4.09c-1.8-1.1-0.21-2.87,1.19-1.37c1.49-0.92,3.15-0.26,4.63,0.76
						C58.79,55.6,56.22,54.81,55.62,54.47z"/>
				</g>
			</g>
			<g>
				<g>
					<path d="M65.7,8.68c-0.09,0.26-0.18,0.53-0.26,0.83c3.4,0.85,6.26,3.16,7.98,6.28l1.11,0.35C72.78,12.44,69.57,9.67,65.7,8.68z
						"/>
				</g>
			</g>
			<g>
				<g>
					<path d="M59.36,8.68c-3.87,1-7.08,3.77-8.83,7.46l1.11-0.35c1.72-3.12,4.59-5.43,7.98-6.28C59.54,9.21,59.46,8.93,59.36,8.68z"
						/>
				</g>
			</g>
			<g>
				<g>
					<path d="M70.89,8.94c-0.79-0.01-0.79,1.23,0,1.22C71.68,10.17,71.68,8.93,70.89,8.94z"/>
				</g>
			</g>
			<g>
				<g>
					<path d="M68.08,7.34c-0.79-0.01-0.79,1.23,0,1.22C68.88,8.58,68.88,7.33,68.08,7.34z"/>
				</g>
			</g>
			<g>
				<g>
					<path d="M66.56,6.79c-0.79-0.01-0.79,1.23,0,1.22C67.36,8.03,67.36,6.78,66.56,6.79z"/>
				</g>
			</g>
			<g>
				<g>
					<path d="M69.53,8.06c-0.79-0.01-0.79,1.23,0,1.22C70.32,9.3,70.32,8.05,69.53,8.06z"/>
				</g>
			</g>
			<g>
				<g>
					<path d="M72.14,9.96c-0.79-0.01-0.79,1.23,0,1.22C72.93,11.19,72.93,9.95,72.14,9.96z"/>
				</g>
			</g>
			<g>
				<g>
					<path d="M75.31,15.77c-0.01,0.79,1.23,0.79,1.22,0C76.54,14.98,75.3,14.98,75.31,15.77z"/>
				</g>
			</g>
			<g>
				<g>
					<path d="M74.57,14.33c-0.01,0.79,1.23,0.79,1.22,0C75.8,13.54,74.56,13.54,74.57,14.33z"/>
				</g>
			</g>
			<g>
				<g>
					<path d="M73.28,11.1c-0.79-0.01-0.79,1.23,0,1.22C74.07,12.34,74.07,11.09,73.28,11.1z"/>
				</g>
			</g>
			<g>
				<g>
					<path d="M73.69,12.97c-0.01,0.79,1.23,0.79,1.22,0C74.92,12.18,73.68,12.18,73.69,12.97z"/>
				</g>
			</g>
			<g>
				<g>
					<path d="M54.18,8.94c-0.79-0.01-0.79,1.23,0,1.22C54.97,10.17,54.97,8.93,54.18,8.94z"/>
				</g>
			</g>
			<g>
				<g>
					<path d="M52.93,9.96c-0.79-0.01-0.79,1.23,0,1.22C53.72,11.19,53.72,9.95,52.93,9.96z"/>
				</g>
			</g>
			<g>
				<g>
					<path d="M49.15,15.16c-0.79-0.01-0.79,1.23,0,1.22C49.94,16.39,49.94,15.15,49.15,15.16z"/>
				</g>
			</g>
			<g>
				<g>
					<path d="M55.54,8.06c-0.79-0.01-0.79,1.23,0,1.22C56.33,9.3,56.33,8.05,55.54,8.06z"/>
				</g>
			</g>
			<g>
				<g>
					<path d="M50.77,12.36c-0.79-0.01-0.79,1.23,0,1.22C51.56,13.6,51.56,12.35,50.77,12.36z"/>
				</g>
			</g>
			<g>
				<g>
					<path d="M49.88,13.72c-0.79-0.01-0.79,1.23,0,1.22C50.68,14.96,50.68,13.71,49.88,13.72z"/>
				</g>
			</g>
			<g>
				<g>
					<path d="M58.5,6.79c-0.79-0.01-0.79,1.23,0,1.22C59.29,8.03,59.29,6.78,58.5,6.79z"/>
				</g>
			</g>
			<g>
				<g>
					<path d="M51.79,11.1c-0.79-0.01-0.79,1.23,0,1.22C52.58,12.34,52.58,11.09,51.79,11.1z"/>
				</g>
			</g>
			<g>
				<g>
					<path d="M56.98,7.34c-0.79-0.01-0.79,1.23,0,1.22C57.77,8.58,57.77,7.33,56.98,7.34z"/>
				</g>
			</g>
			<g>
				<g>
					<path d="M64.7,7.62c-0.97,2.13-1.12,5.06-1.12,6.62h0.81c0-2.58,0.37-4.81,1.05-6.28C65.67,7.48,64.92,7.13,64.7,7.62z"/>
				</g>
			</g>
			<g>
				<g>
					<path d="M60.36,7.62c-0.22-0.48-0.97-0.14-0.74,0.34c0.67,1.48,1.05,3.71,1.05,6.28h0.81C61.48,12.68,61.33,9.75,60.36,7.62z"
						/>
				</g>
			</g>
			<g>
				<g>
					<path d="M62.53,12.91c-0.86-0.01-0.86,1.34,0,1.32C63.39,14.24,63.39,12.89,62.53,12.91z"/>
				</g>
			</g>
			<g>
				<g>
					<path d="M62.53,11.25c-0.86-0.01-0.86,1.34,0,1.32C63.39,12.58,63.39,11.24,62.53,11.25z"/>
				</g>
			</g>
			<g>
				<g>
					<path d="M62.53,9.59c-0.86-0.01-0.86,1.34,0,1.32C63.39,10.93,63.39,9.58,62.53,9.59z"/>
				</g>
			</g>
			<g>
				<g>
					<path d="M62.06,9.3c0.28-0.15,0.66-0.15,0.94,0C63.95,7.83,61.12,7.83,62.06,9.3z"/>
				</g>
			</g>
			<g>
				<g>
					<path d="M62.01,7.9c0.31-0.19,0.75-0.19,1.05,0C63.8,6.53,61.27,6.53,62.01,7.9z"/>
				</g>
			</g>
			<g>
				<g>
					<path d="M64.54,3.43h0.22v-3h-0.22c-0.1,0.55-0.76,0.99-1.6,1.1c0.11-0.85,0.55-1.5,1.1-1.6v-0.22h-3v0.22
						c0.55,0.1,0.99,0.76,1.1,1.6c-0.85-0.11-1.5-0.55-1.6-1.1h-0.22v3h0.22c0.1-0.55,0.76-0.99,1.6-1.1
						c-0.11,0.85-0.55,1.5-1.1,1.6v0.22h1.07c-0.05,0.04-0.1,0.08-0.13,0.13c-1.92,0.43-2.11,3.35-0.28,4.04
						c-0.71-0.69-0.17-2.02,0.84-1.98c1.01-0.03,1.56,1.29,0.84,1.98c1.83-0.69,1.63-3.61-0.28-4.04c-0.04-0.05-0.08-0.09-0.13-0.13
						h1.07V3.93c-0.55-0.1-0.99-0.76-1.1-1.6C63.78,2.44,64.43,2.88,64.54,3.43z"/>
				</g>
			</g>
			<g>
				<g>
					<path d="M88.45,48.97c0.02,0.14,0.08,0.26,0.19,0.34l0,0C88.57,49.2,88.51,49.08,88.45,48.97z"/>
				</g>
			</g>
			<g>
				<g>
					<path d="M48.31,46.43c-0.17-0.04-2.27,0.35-2.27,0.35s2-2.33,1.95-2.6l-3.4,0.38l0.07,0.59c0.16-0.02,2-0.28,2-0.28
						s-1.66,1.88-1.74,1.91l0.19,0.73l3.37-0.42L48.31,46.43z"/>
				</g>
			</g>
			<g>
				<g>
					<path d="M51.12,52.8c-0.22,0.36-0.71,0.71-1.08,0.98l-0.87-1.21c0.37-0.28,0.86-0.63,1.27-0.72l-0.57-0.79
						c-0.6,0.74-1.85,1.64-2.74,1.98l0.57,0.79c0.22-0.36,0.7-0.71,1.08-0.97l0.87,1.21c-0.37,0.28-0.85,0.62-1.26,0.72l0.57,0.79
						c0.6-0.74,1.85-1.64,2.74-1.98L51.12,52.8z"/>
				</g>
			</g>
			<g>
				<g>
					<path d="M44.63,42.3l-0.05,0.72c0.96-0.18,2.51-0.18,3.47,0.01l0.05-0.72C47.14,42.49,45.59,42.49,44.63,42.3z"/>
				</g>
			</g>
			<g>
				<g>
					<path d="M71.79,55.57c-0.98-0.28,0.26-1.27,0.9-1.05l0.02-0.01l-0.49-0.58c-0.73,0.32-1.9,1.3-1.28,2.14
						c0.43,0.55,1.3-0.04,1.87-0.03c0.94,0.17-0.07,1.15-0.65,1.1l-0.01,0.01l0.37,0.44C74.58,56.68,74.12,54.63,71.79,55.57z"/>
				</g>
			</g>
			<g>
				<g>
					<path d="M75.54,47.51l-0.56,1.89l0.56,0.47l0.01-0.01c-0.04-0.43,0.02-0.92,0.18-1.46l1.02,0.3c-0.1,0.29-0.28,0.97-0.42,1.14
						l0.51,0.08l0.32-1.1l0.97,0.28c-0.12,0.36-0.28,0.65-0.48,0.86l0.52,0.48l0.59-1.99C78.45,48.46,75.78,47.68,75.54,47.51z"/>
				</g>
			</g>
			<g>
				<g>
					<path d="M77.13,52.46l-2.64-1.77l-0.29,0.55c0.1,0.13,1.82,1.15,1.82,1.15s-2.84,0.37-2.97,0.59l2.64,1.81l0.31-0.44
						c-0.13-0.09-1.58-1.03-1.58-1.03s2.33-0.27,2.4-0.24L77.13,52.46z"/>
				</g>
			</g>
			<g>
				<g>
					<path d="M69.64,55.68l-1.74,1.01l0.08,0.72l0.01,0c0.28-0.35,0.66-0.66,1.16-0.95l0.54,0.89c-0.28,0.15-0.89,0.52-1.12,0.56
						l0.32,0.39l1.02-0.59l0.52,0.85c-0.34,0.19-0.66,0.29-0.96,0.31l0.05,0.69l1.84-1.06C71.12,58.3,69.69,55.96,69.64,55.68z"/>
				</g>
			</g>
			<g>
				<g>
					<path d="M49.02,36.32c-0.55-0.43-1.26,0.34-1.81,0.47c-0.96,0.06-0.2-1.14,0.38-1.22l0.01-0.01l-0.46-0.34
						c-0.87,0.44-1.52,2.32-0.12,2.36c0.3,0.01,1.06-0.51,1.3-0.57c0.66-0.12,0.45,0.76,0.05,0.97c0.2-0.01,0.4-0.04,0.59,0.01
						C49.32,37.47,49.55,36.72,49.02,36.32z"/>
				</g>
			</g>
			<g>
				<g>
					<path d="M49.7,32.96v-0.64c-2.4-0.14-2.37,3.67,0,3.59v-0.6C48.17,35.21,47.85,32.56,49.7,32.96z"/>
				</g>
			</g>
			<g>
				<g>
					<path d="M55.34,28.96l-0.83-0.63l-2.56,1.53l0.29,0.98l0.01,0c0.21-0.41,0.52-0.73,0.86-0.92c0.08,0.14,0.22,0.39,0.39,0.7
						c0.01,0,1.05,0,1.06,0c-0.4-0.63-0.72-1.15-0.72-1.15C54.21,29.25,54.99,28.94,55.34,28.96z"/>
				</g>
			</g>
			<g>
				<g>
					<path d="M60.98,30.18c-0.25-0.08-0.59-0.27-1.01-0.6c1.29-1.77-1.38-3.59-2.72-1.98c-1.28,1.34,0.44,3.44,2.03,2.54
						c0.55,0.29,1.2,0.46,1.71,0.05L60.98,30.18z M59.03,29.67c-1.14,0.47-2.23-1.53-0.96-2.01C59.2,27.19,60.31,29.17,59.03,29.67z
						"/>
				</g>
			</g>
			<g>
				<g>
					<path d="M64.61,26.77h-1.14c0.24,0.48,0.15,1.52,0.17,2.08c0.01,0.4-0.37,0.67-0.75,0.66c-0.97,0.12-0.64-2.23-0.46-2.74h-1.14
						c0.23,0.47,0.16,1.44,0.17,1.99c-0.09,1.35,1.23,1.69,2.22,0.99c0,0.15-0.01,0.26-0.03,0.33h0.96
						C64.34,29.2,64.34,27.65,64.61,26.77z"/>
				</g>
			</g>
			<g>
				<g>
					<path d="M66.33,27.2c0.01,0.88-0.46,2.24-0.76,3.08c0.34,0.04,0.34,0.04,0.7,0.11c0.2-0.82,0.49-2.2,0.94-2.89L66.33,27.2z"/>
				</g>
			</g>
			<g>
				<g>
					<path d="M75.79,27.36"/>
				</g>
				<g>
					<path class="st1" d="M75.79,27.36"/>
				</g>
			</g>
			<g>
				<g>
					<g>
						<path d="M73.45,41.78c0-0.19-0.2-0.32-0.38-0.26v0.04c-0.33,1.48-0.17-4.61-0.2-4.38l0.3,0.12c0-0.18,0-0.53,0-0.71l-0.3,0.12
							l0-4.48c0.04-0.23,0.39-0.03,0.2,0.11v0.04c0.41,0.13,0.53-0.53,0.09-0.54l0.28-0.48l-0.07-0.06c-0.01,0-0.49,0.27-0.5,0.27
							c-0.01-0.41-0.7-0.31-0.57,0.09h0.04c0.15-0.18,0.36,0.14,0.12,0.19l-4.14,0l0.13-0.28c-0.19,0-0.56,0-0.75,0l0.13,0.28
							l-4.13,0c-0.25-0.04-0.04-0.37,0.11-0.19h0.04c0.14-0.4-0.56-0.5-0.57-0.09c0,0.01-0.5-0.27-0.5-0.27l-0.07,0.06L63,31.85
							c-0.44,0.01-0.32,0.67,0.09,0.54v-0.04c0.32-1.48,0.17,4.58,0.2,4.37L63,36.59c0,0.18,0,0.53,0,0.71l0.29-0.12
							c-0.03-0.11,0.13,5.82-0.2,4.38v-0.04c-0.41-0.13-0.54,0.53-0.09,0.54l-0.28,0.48l0.07,0.06c0.01,0,0.49-0.27,0.5-0.27
							c0,0.41,0.7,0.31,0.57-0.09h-0.04c-0.06,0.1-0.23,0.05-0.23-0.07c0-0.06,0.05-0.11,0.11-0.12h4.14l-0.13,0.28
							c0.19,0,0.56,0,0.75,0l-0.13-0.28h4.13c0.06,0.01,0.11,0.06,0.11,0.12c0,0.12-0.17,0.17-0.23,0.07H72.3
							c-0.13,0.4,0.57,0.5,0.57,0.09c0,0,0.49,0.27,0.5,0.27l0.07-0.06l-0.28-0.48C73.32,42.05,73.45,41.93,73.45,41.78z
							 M72.58,41.78h-9v-4.86l0,0l0,0v-4.8c0.95,0,3.96,0,4.86,0h4.14V41.78z"/>
						<path d="M63.94,40.9v0.53h0.56h7.16h0.57c0-0.51,0-8.46,0-8.96c-2.53,0-5.76,0-8.29,0V40.9z M67.66,41.17L67.66,41.17
							C67.66,41.17,67.66,41.17,67.66,41.17L67.66,41.17z M68.49,41.17L68.49,41.17C68.5,41.17,68.5,41.17,68.49,41.17L68.49,41.17z
							 M68.49,32.74L68.49,32.74C68.49,32.74,68.49,32.74,68.49,32.74L68.49,32.74z M64.22,37.35L64.22,37.35L64.22,37.35
							c0,0,0,0.08,0,0.09c0.02-0.17,0.29-0.05,0.15,0.07l0.04,0.04c0.27,0.03,0.31-0.38,0.04-0.39v-0.01L64.78,37v-0.1l-0.33-0.15
							v-0.01c0.28-0.02,0.24-0.43-0.04-0.39l-0.04,0.04c0.14,0.11-0.14,0.24-0.15,0.07c0,0.01,0,0.09,0,0.1h0c0-0.01,0-3.55,0-3.56
							h0.28v-0.27h3.07c0.17,0.03,0.03,0.26-0.08,0.14l-0.04,0.04c-0.03,0.27,0.42,0.29,0.42,0.02h0l0.16,0.33h0.11l0.16-0.33
							c0,0.27,0.45,0.25,0.42-0.02l-0.04-0.04c-0.11,0.12-0.25-0.11-0.08-0.14h3.07V33h0.28c-0.03-0.06,0.11,4.37-0.15,3.39
							l-0.04-0.04c-0.27-0.03-0.31,0.38-0.03,0.39v0.01l-0.33,0.14V37l0.33,0.14v0.01c-0.28,0.01-0.24,0.43,0.03,0.39l0.04-0.04
							c0.26-1.01,0.12,3.52,0.15,3.4h-0.28v0.27h-3.07c-0.18-0.02-0.04-0.27,0.08-0.14l0.04-0.04c0.03-0.26-0.41-0.29-0.42-0.03
							h-0.01l-0.16-0.32h-0.1l-0.15,0.32h-0.01c-0.01-0.26-0.45-0.23-0.42,0.03l0.04,0.04c0.12-0.12,0.26,0.12,0.08,0.14H64.5V40.9
							h-0.28V37.35z M71.94,36.56L71.94,36.56L71.94,36.56C71.94,36.56,71.94,36.56,71.94,36.56z"/>
					</g>
				</g>
			</g>
			<g>
				<g>
					<path d="M35.49,18.11c-0.72,0.52-1.14,1.39-1.17,2.35l0.2-0.17c0.08-0.83,0.47-1.56,1.1-2.02
						C35.57,18.22,35.53,18.16,35.49,18.11z"/>
				</g>
			</g>
			<g>
				<g>
					<path d="M35.65,17.82c-0.09-0.09-0.24,0.04-0.15,0.13c0.28,0.28,0.55,0.75,0.76,1.34l0.19-0.06
						C36.32,18.88,36.05,18.23,35.65,17.82z"/>
				</g>
			</g>
			<g>
				<g>
					<path d="M34.53,18.05c-0.38-0.01-0.39,0.59-0.01,0.59C34.91,18.65,34.92,18.05,34.53,18.05z"/>
				</g>
			</g>
			<g>
				<g>
					<path d="M39.74,16.95c-0.27,0.28,0.17,0.69,0.43,0.41C40.44,17.09,40,16.68,39.74,16.95z"/>
				</g>
			</g>
			<g>
				<g>
					<path d="M40.34,17.45c-0.27,0.28,0.17,0.69,0.43,0.41C41.04,17.59,40.6,17.17,40.34,17.45z"/>
				</g>
			</g>
			<g>
				<g>
					<path d="M37.58,16.48c-0.27,0.28,0.17,0.69,0.43,0.41C38.28,16.62,37.84,16.2,37.58,16.48z"/>
				</g>
			</g>
			<g>
				<g>
					<path d="M39.07,16.64c-0.27,0.28,0.17,0.69,0.43,0.41C39.77,16.77,39.33,16.36,39.07,16.64z"/>
				</g>
			</g>
			<g>
				<g>
					<path d="M37.71,17.2c0.01,0.07,0.01,0.13,0.03,0.21c0.77-0.13,1.57,0.1,2.21,0.63L40.2,18C39.5,17.36,38.58,17.05,37.71,17.2z"
						/>
				</g>
			</g>
			<g>
				<g>
					<path d="M37.54,17.1c0-0.13-0.2-0.12-0.2,0.01c0.01,0.57,0.28,1.22,0.44,1.56l0.18-0.09C37.69,18.02,37.54,17.49,37.54,17.1z"
						/>
				</g>
			</g>
			<g>
				<g>
					<path d="M38.33,16.47c-0.27,0.28,0.17,0.69,0.43,0.41C39.03,16.61,38.59,16.19,38.33,16.47z"/>
				</g>
			</g>
			<g>
				<g>
					<path d="M72.22,48.8c-0.42-0.41-1.12,0.37-1.55-0.06c0.86-0.02,2.85-0.96,1.41-1.74c-0.81-0.14-1.62,0.26-2.4,0.44
						c-3.14,1.25-1.3-0.28-3.25-0.11c0.66,1.67,2.32,0.81,3.57,0.42c0.04,0.18-0.19,0.23-0.16,0.41c0.42-0.09,0.82-0.17,1.21-0.25
						c0.17-0.82,1.66-0.83,0.98-0.01c-1.72,0.75-3.75,0.61-5.55,1.12c-1.2,3.15-3.3,1.01-3.28,1.91c-0.47,0.04-0.46,0.5,0.02,0.46
						c0.01,0.92,2.33-0.15,2.76-0.43c0.1-0.22,0.2-0.42,0.3-0.63c0.71,0.34,1.2-0.67,1.81-0.85c0.61-0.12,1.4-0.72,1.92-0.17
						c0.58,0.64,1.44-0.34,1.95,0.31c-0.19,0.5,0.06,0.28,0.15,0.59c-0.01,0.28,0.46,0.28,0.47-0.01c0-0.12,0.01-0.2,0.13-0.25
						C72.96,49.56,72.41,49.12,72.22,48.8z"/>
				</g>
			</g>
			<g>
				<g>
					<path d="M72.86,45.47c-0.22-0.21-1.11,0.22-1.13-0.22c0.66,0.15,1.92-0.71,1.05-1.27c-1.47-0.34-3.09,0.37-4.58,0.54
						c-0.59,0.13-0.29-0.83-1.59-0.57c0.83,1.74,2.64,0.51,4.03,0.49c0.01,0.16-0.27,0.15-0.2,0.34c0.41-0.13,1.1,0.09,1.33-0.31
						c0.13-0.5,1.17-0.38,0.86,0.19c-0.78,0.5-1.95,0.27-2.86,0.37c-1.12,0.09-2.35,0.12-3.4,0.51c-0.21,0.65-0.5,1.32-1.25,1.48
						c-0.53-0.51-1.29,0.09-1.85-0.43c-0.18,0.04-0.22,0.15-0.29,0.29c-0.28,0.1-0.37,0.26-0.09,0.45c0.14,0.05,0.09,0.21,0.15,0.3
						c0.74,0.05,1.48-0.15,2.23-0.24c0.56,0,0.54-0.49,0.95-0.56c0.99,0.05,1.6-0.82,2.53-0.96c0.74-0.21,1.75-0.49,2.41,0.04
						c0.16,0.18,0.39,0.21,0.63,0.17c0.31-0.06,0.69-0.12,0.85,0.24c-0.05,0.06-0.11,0.11-0.18,0.19c0.03,0.07,0.07,0.15,0.11,0.23
						c0.15-0.01,0.18,0.11,0.24,0.21c0.08,0.14,0.28,0.14,0.31,0c0.04-0.17,0.22-0.09,0.27-0.24C73.42,46.26,73.32,45.7,72.86,45.47
						z"/>
				</g>
			</g>
			<g>
				<g>
					<path d="M71.18,51.93c-1.47-0.19-1.25,0.82-1.97,0.58c0.13-0.16,0.49-0.25,0.37-0.49c-1.08,0.47-2.21,0.81-3.29,1.29
						c-0.55,0.58-0.37,1.74-1.6,1.84c-0.04,0.6-0.89,1.01-1.41,0.74c-0.21,0.2-0.12,0.25-0.09,0.43c-0.18,0.16-0.42,0.53-0.04,0.53
						c0.12-0.03,0.21-0.2,0.34-0.15c-0.01,0.08-0.02,0.16-0.03,0.24c0.1,0,0.24,0.03,0.27-0.01c0.17-0.21,0.41-0.04,0.6-0.2
						c0.63-0.43,1.54-0.82,1.49-1.7c1.12-0.49,1.77-2.3,3.22-1.66c0.72,0.39,0.92-0.78,1.56-0.8c0.18,0.43,0.27,0.39,0.5,0.25
						c0.41,0.31,0.34-0.18,0.49-0.41C71.63,52.18,71.41,51.92,71.18,51.93z"/>
				</g>
			</g>
			<g>
				<g>
					<path d="M66.39,44.29c-0.11-0.27-0.53-0.07-0.64-0.38c-0.27-0.37-0.62-0.07-0.84,0.18c-0.16,0.02-0.32-0.06-0.47,0.01
						c-0.16,0.28,0.27,0.45,0.09,0.75c-0.23,0.67,0.01,1.56,0.63,1.93c0.71-0.32,1.17-1.25,0.92-2.03
						C66.24,44.6,66.45,44.53,66.39,44.29z"/>
				</g>
			</g>
			<g>
				<g>
					<path d="M65.58,52.2c-0.2-0.44-0.64-0.48-0.95-0.11c-0.11,0.13-0.27,0.09-0.41,0.1c-0.3,0.14-0.13,0.46,0.13,0.53
						c-0.14,0.5-0.21,1-0.02,1.49c0.69,1.66,1.73-0.45,1.47-1.35C66.29,52.47,66.16,52.24,65.58,52.2z"/>
				</g>
			</g>
			<g>
				<g>
					<path d="M66.24,48.07c-0.13-0.08-0.3-0.08-0.45-0.07c-0.25-0.64-0.69-0.4-1.05-0.02c-0.54-0.21-0.46,0.27-0.17,0.53
						c-0.27,0.65-0.08,1.63,0.61,1.91c0.73-0.31,0.94-1.2,0.89-1.92C66.3,48.47,66.49,48.21,66.24,48.07z"/>
				</g>
			</g>
			<g>
				<g>
					<path d="M71.51,50.23c-1.32-0.44-3.39,2.42-4.26,1.58c-0.21-0.46-0.87-0.41-1.28-0.28c0.49,0.36,0.76,1.14,1.51,0.88
						c0.85-0.16,1.51-0.85,2.24-1.16c0.02,0.25-0.23,0.35-0.33,0.59c0.5-0.16,0.95-0.3,1.32-0.62c-0.06-1.39,1.92-0.41,0.02,0.44
						c0.34,0.01,0.57,0.16,0.8-0.12C71.97,51.14,72,50.58,71.51,50.23z"/>
				</g>
			</g>
			<g>
				<g>
					<path d="M68.52,53.44c-0.39,0.1-0.77,0.13-1.01,0.53c0.1,0.13,0.19,0.25,0.29,0.39c-0.18,0.48-0.66,0.4-1.11,0.42
						c0.04,0.15,0.06,0.23,0.09,0.33c-0.19,0.1-0.26,0.27-0.22,0.5c0.05,0.02,0.11,0.04,0.17,0.06c0.12-0.15,0.35-0.31,0.4-0.02
						c0.81-0.26,1.53-0.76,1.92-1.51C68.82,53.95,68.62,53.74,68.52,53.44z"/>
				</g>
			</g>
			<g>
				<g>
					<path d="M69.45,49.29c-0.38,0.12-0.82,0.11-1.05,0.46c0.14,0.15,0.26,0.27,0.39,0.42c-0.26,0.14-0.56,0.39-0.84,0.15
						c-0.11-0.1-0.43-0.06-0.36,0.15c0.01,0.03-0.01,0.07-0.01,0.11c-0.05,0.01-0.09,0.01-0.13,0.01c-0.17,0-0.21,0.22-0.09,0.32
						c0.12,0.13,0.23-0.01,0.36,0.03c0,0.07,0.01,0.13,0.01,0.19c0.71,0.04,1.77-0.59,2.15-1.16
						C69.74,49.74,69.59,49.52,69.45,49.29z"/>
				</g>
			</g>
			<g>
				<g>
					<path d="M63.59,53.38c0.23-0.33,0.13-0.75-0.31-0.48c-0.11-0.22-0.27-0.26-0.47-0.21c-0.06,0.14-0.09,0.28,0.06,0.39
						c0.01,0.01,0,0.04,0,0.06c-0.05,0.02-0.1,0.03-0.14,0.05c-0.11,0.28,0.17,0.44,0.27,0.66c0.3,0.48,0.75,1.65,1.46,1.04
						C64.19,54.38,63.78,53.91,63.59,53.38z"/>
				</g>
			</g>
			<g>
				<g>
					<path d="M63.84,44.61c0.06-0.13,0.04-0.29-0.09-0.39c-0.24,0.06-0.24,0.06-0.42-0.05c-0.31-0.15-0.35,0.19-0.32,0.4
						c-0.06,0.03-0.12,0.05-0.2,0.09c0.21,0.61,0.85,2.13,1.64,1.82C64.41,45.77,63.59,45.32,63.84,44.61z"/>
				</g>
			</g>
			<g>
				<g>
					<path d="M63.77,48.78c0.03-0.14-0.02-0.29-0.14-0.42c-0.26,0.08-0.81-0.51-0.61,0.19c-0.16,0.06-0.26,0.17-0.15,0.32
						c0.3,0.46,0.38,1.19,0.89,1.45c0.23,0,0.59,0.21,0.73-0.06C64.35,49.71,63.67,49.4,63.77,48.78z"/>
				</g>
			</g>
			<g>
				<g>
					<path d="M60.4,33.14c-0.26,0.12-0.61,0.25-0.82-0.07c0.45-0.19,1.02-0.14,1.33-0.57c0.23-0.28,0.21-0.85-0.23-1
						c-1.15-0.32-2.36,0.26-3.52,0.36c-2.18,0.59-0.62-0.47-2.35-0.46c0.62,1.77,2.47,0.63,3.76,0.5c-0.09,0.21-0.3,0.29-0.39,0.47
						c0.46-0.09,1.06,0.08,1.39-0.27c0.18-0.49,1.33-0.54,1.06,0.12c-1.09,1.06-4.49,0.07-6.01,0.75c-0.23,0.69-0.63,1.15-1.29,1.34
						c-0.54-0.33-0.79,0.05-1.33-0.1c-0.15-0.17-0.3-0.35-0.54-0.17c0,0.07,0,0.15,0,0.25c-0.26-0.07-0.54,0.28-0.27,0.44
						c0.11,0.01,0.23-0.12,0.34-0.01c-0.01,0.06-0.02,0.12-0.03,0.18c0.72,0.31,1.51-0.04,2.22-0.23c0.28-0.09,0.44-0.37,0.75-0.37
						c0.74,0.05,1.15-0.56,1.79-0.74c0.78-0.15,1.57-0.27,2.37-0.26c0.92,1.25,1.08,0.19,1.9,0.61c-0.02,0.12-0.05,0.24-0.07,0.37
						c0.08,0.03,0.15,0.05,0.21,0.07c-0.08,0.31,0.38,0.49,0.44,0.1c0.01-0.05-0.01-0.11,0.05-0.12
						C61.66,34.09,60.91,32.8,60.4,33.14z"/>
				</g>
			</g>
			<g>
				<g>
					<path d="M54.66,31.95c-0.03-0.1-0.05-0.18-0.07-0.27c-0.16-0.01-0.31-0.01-0.45-0.02c-0.32-0.42-0.52-0.42-0.9-0.05
						c-0.26-0.1-0.26-0.1-0.44,0.13c0.06,0.13,0.15,0.23,0.29,0.3c-0.4,0.74-0.28,1.4,0.19,2.02c0.89,0.03,1.26-1.19,1.11-1.93
						C54.48,32.07,54.57,32.01,54.66,31.95z"/>
				</g>
			</g>
			<g>
				<g>
					<path d="M58.6,33.69c-0.1-0.4-0.85-0.07-1.16-0.06c-0.04,0.21,0.15,0.29,0.18,0.46c-0.24,0.16-0.5,0.16-0.75,0.2
						c-0.13-0.13-0.19-0.38-0.42-0.31c-0.13,0.03-0.06,0.17-0.16,0.23c-0.26-0.02-0.26-0.02-0.3,0.24c0.08,0.05,0.16,0.1,0.24,0.14
						c-0.2,0.92,2.32-0.04,2.7-0.31C58.81,34.07,58.65,33.93,58.6,33.69z"/>
				</g>
			</g>
			<g>
				<g>
					<path d="M52.37,32.82c-0.29-0.29-0.38-0.7-0.09-1.01c-0.15-0.14-0.34-0.03-0.48-0.22c-0.18-0.21-0.29,0.03-0.34,0.25
						c-0.51,0.07-0.22,0.24-0.1,0.52c0.17,0.47,0.78,1.61,1.37,1.39C52.71,33.42,52.63,33.04,52.37,32.82z"/>
				</g>
			</g>
			<g>
				<g>
					<path d="M60.34,37.19c-0.27,0.13-0.62,0.25-0.82-0.07c0.46-0.19,1.03-0.14,1.34-0.57c0.23-0.28,0.21-0.85-0.23-1.01
						c-1.16-0.32-2.38,0.26-3.55,0.37c-2.19,0.59-0.63-0.47-2.37-0.46c0.62,1.78,2.49,0.64,3.79,0.51
						c-0.09,0.21-0.31,0.29-0.39,0.48c0.46-0.09,1.06,0.08,1.41-0.27c0.18-0.49,1.34-0.55,1.07,0.12c-1.1,1.07-4.53,0.07-6.06,0.75
						c-0.23,0.7-0.63,1.16-1.3,1.35c-0.46-0.29-0.71-0.05-1.11-0.07c0.02,0.13,0.05,0.25,0.09,0.38c0.03,0.13,0.05,0.26,0.06,0.39
						c0.46-0.05,0.93-0.23,1.36-0.35c0.28-0.09,0.45-0.37,0.76-0.37c0.74,0.05,1.16-0.57,1.8-0.75c0.79-0.15,1.59-0.27,2.39-0.26
						c0.92,1.26,1.09,0.19,1.92,0.62c-0.02,0.12-0.05,0.24-0.07,0.37c0.08,0.03,0.15,0.05,0.22,0.07c-0.08,0.31,0.38,0.5,0.45,0.1
						c0.01-0.05-0.01-0.11,0.05-0.12C61.61,38.15,60.86,36.85,60.34,37.19z"/>
				</g>
			</g>
			<g>
				<g>
					<path d="M54.56,35.99c-0.03-0.1-0.05-0.18-0.07-0.27c-0.16-0.01-0.31-0.01-0.45-0.02c-0.33-0.42-0.52-0.43-0.91-0.05
						c-0.27-0.1-0.27-0.1-0.44,0.13c0.07,0.14,0.15,0.24,0.29,0.3c-0.4,0.74-0.29,1.41,0.2,2.03c0.9,0.03,1.27-1.2,1.12-1.94
						C54.37,36.11,54.46,36.05,54.56,35.99z"/>
				</g>
			</g>
			<g>
				<g>
					<path d="M58.53,37.74c-0.1-0.41-0.86-0.07-1.17-0.06c-0.04,0.21,0.15,0.3,0.18,0.46c-0.24,0.16-0.5,0.16-0.76,0.2
						c-0.14-0.14-0.19-0.38-0.43-0.31c-0.13,0.03-0.06,0.17-0.16,0.23c-0.26-0.02-0.26-0.02-0.3,0.24c0.08,0.05,0.16,0.1,0.24,0.14
						c-0.2,0.93,2.34-0.04,2.72-0.31C58.73,38.13,58.58,37.98,58.53,37.74z"/>
				</g>
			</g>
			<g>
				<g>
					<path d="M52.25,36.86c-0.29-0.3-0.38-0.7-0.09-1.02c-0.15-0.14-0.34-0.03-0.49-0.22c-0.18-0.21-0.29,0.03-0.34,0.25
						c-0.52,0.08-0.22,0.24-0.1,0.52c0.17,0.48,0.78,1.62,1.38,1.41C52.59,37.47,52.51,37.09,52.25,36.86z"/>
				</g>
			</g>
			<g>
				<g>
					<path d="M60.42,40.98c-0.27,0.12-0.62,0.25-0.82-0.07c0.46-0.19,1.02-0.14,1.34-0.57c0.23-0.28,0.21-0.85-0.23-1
						c-1.15-0.32-2.38,0.26-3.54,0.37c-2.19,0.59-0.63-0.47-2.37-0.46c0.62,1.78,2.49,0.64,3.79,0.51
						c-0.09,0.21-0.31,0.29-0.39,0.48c0.46-0.09,1.06,0.08,1.4-0.27c0.18-0.49,1.34-0.55,1.06,0.12c-1.09,1.07-4.52,0.07-6.05,0.75
						c-0.23,0.7-0.63,1.16-1.3,1.35c-0.55-0.34-0.79,0.05-1.34-0.1c-0.05-0.06-0.11-0.12-0.16-0.17c-0.02-0.01-0.03-0.02-0.04-0.03
						c-0.02-0.01-0.04-0.02-0.06-0.03c0,0.01,0.01,0.02,0.01,0.03c0.01,0.32-0.07,0.63-0.19,0.92c0.71,0.28,1.49-0.06,2.19-0.25
						c0.28-0.09,0.45-0.37,0.76-0.37c0.74,0.05,1.16-0.57,1.8-0.75c0.79-0.15,1.58-0.27,2.39-0.26c0.92,1.26,1.09,0.19,1.91,0.62
						c-0.02,0.12-0.05,0.24-0.07,0.37c0.08,0.03,0.15,0.05,0.22,0.07c-0.08,0.31,0.38,0.49,0.45,0.1c0.01-0.05-0.01-0.11,0.05-0.12
						C61.7,41.94,60.95,40.64,60.42,40.98z"/>
				</g>
			</g>
			<g>
				<g>
					<path d="M54.65,39.78c-0.03-0.1-0.05-0.18-0.07-0.27c-0.16-0.01-0.31-0.01-0.45-0.02c-0.33-0.42-0.52-0.43-0.91-0.05
						c-0.26-0.1-0.26-0.1-0.44,0.13c0.07,0.14,0.15,0.24,0.29,0.3c-0.4,0.74-0.29,1.41,0.19,2.03c0.9,0.03,1.27-1.2,1.12-1.94
						C54.47,39.91,54.56,39.85,54.65,39.78z"/>
				</g>
			</g>
			<g>
				<g>
					<path d="M58.62,41.53c-0.1-0.41-0.86-0.07-1.17-0.06c-0.04,0.21,0.15,0.3,0.18,0.46c-0.24,0.16-0.5,0.16-0.76,0.2
						c-0.14-0.14-0.19-0.38-0.43-0.31c-0.13,0.03-0.06,0.17-0.16,0.23c-0.26-0.02-0.26-0.02-0.3,0.24c0.08,0.05,0.16,0.1,0.24,0.14
						c-0.2,0.93,2.34-0.04,2.71-0.31C58.83,41.92,58.67,41.77,58.62,41.53z"/>
				</g>
			</g>
			<g>
				<g>
					<path d="M52.35,40.65c-0.05-0.06-0.1-0.12-0.14-0.18c-0.02,0.17,0.07,0.36,0.04,0.52c-0.02,0.13-0.06,0.32-0.1,0.44
						c0.21,0.2,0.33,0.23,0.56,0.14C52.69,41.26,52.61,40.88,52.35,40.65z"/>
				</g>
			</g>
			<g>
				<g>
					<path d="M67.23,35.15c-0.43-0.38-0.69-0.75-0.7-1.09c-0.02-0.11,0.25-0.26,0.23-0.37c-0.01-0.39-0.34,0.05-0.47-0.02
						c-0.07-0.11-0.31-0.44-0.46-0.28c-0.09,0.04,0.02,0.28-0.05,0.33c-0.03,0.04-0.05,0.05-0.16,0.05
						c-0.35-0.01-0.4,0.21-0.11,0.34c0.2,0.12,0.35,0.7,0.46,0.78c0.22,0.3,0.7,1.09,1.16,0.92l0-0.01
						c0.14-0.05,0.27-0.45,0.27-0.51C67.39,35.29,67.32,35.22,67.23,35.15z"/>
				</g>
			</g>
			<g>
				<g>
					<path d="M69.58,33.86c-0.07-0.14-0.25-0.03-0.48-0.11c-0.18-0.08-0.64-0.23-0.83-0.12c-0.13,0.16-0.92,0.18-0.78,0.41
						c0.03,0.09,0.09,0.29,0.09,0.29l0.36,0.04l0.01,0.26c0,0-0.26,0.06-0.34,0.07c-0.21,0.31,0.51,0.34,0.7,0.09
						c0.13-0.15,0.33-0.17,0.32-0.01c-0.1,0.21-0.45,0.31-0.65,0.41c-0.3,0.05-0.38,0.65-0.62,0.84c-0.66,0.12-0.9,0.11-1.55-0.43
						c-0.24-0.27-0.43-0.07-0.25,0.15c-0.12,0.04-0.72-0.3-0.45,0.28l0.04,0.05c-0.3,0.43,0.15,0.28,0.4,0.42
						c0.53,0.21,1.12,0.37,1.8,0.26c0.12-0.11,0.47-0.45,0.5-0.53c0.03-0.08,0.05-0.08,0.29-0.1c0.68-0.1,1.02-0.37,1.21-1.1
						c0.09-0.22-0.03-0.69-0.16-0.79c-0.05-0.04-0.08-0.11-0.04-0.13C69.28,34.11,69.54,34,69.58,33.86z"/>
				</g>
			</g>
			<g>
				<g>
					<path d="M71.27,34.09c-0.98,0.07-1.93,0.72-1.45,1.82c0.3,0.62,0.23,0.57-0.35,0.45l0.28,0.58c0,0,0.6,0.27,0.68,0.35
						c0.34,0.25,0.28,0.93-0.02,0.85c-0.5-0.2-0.8-0.91-1.14-1.35c-0.09-0.07-0.33-0.78-0.49-0.6c-2.06,0.46,0.37,0.99,0,1.75
						c-0.07,0.11-0.3,0.64-0.21,0.72c0.17,0.21,0.56,0.37,0.77,0.64c0.34,0.33,0.03,0.71-0.38,0.4c-0.24-0.18-0.52,0.08-0.28,0.32
						c0.02,0.05-0.14,0.11-0.17,0.13c-0.25,0.34,0.16,0.32,0.38,0.15c0.12-0.06,0,0.3,0.2,0.24c0.38-0.08,0.96-0.27,1.06-0.86
						c0.23-0.54-0.31-0.45-0.44-0.92c-0.14-0.19-0.14-0.91,0.15-0.64c0.27,0.34,0.64,0.54,0.97,0.23c0.31-0.29,0.03-1-0.13-1.31
						c-0.3-0.62-0.64-1.22-0.62-1.96C70.49,34.59,70.98,35.47,71.27,34.09z"/>
				</g>
			</g>
			<g>
				<g>
					<path d="M67.9,37.53c-0.52-0.03-0.91-0.07-0.77,0.55c0.03,0.15,0.08,0.59,0.17,0.7c0.04,0.06,0.03,0.12-0.02,0.16
						c-0.21,0.12-1-0.2-0.9-0.47c0-0.22-0.22-0.27-0.29-0.12c-0.04,0.07-0.09,0.07-0.17-0.02c-0.15-0.21-0.35,0.07-0.27,0.23
						c0.03,0.06-0.01,0.13-0.08,0.14c-0.22,0.09-0.2,0.38,0.1,0.4c0.66,0.3,1.23,0.62,1.99,0.51l-0.01,0
						c0.83-0.07,0.4-0.22,0.37-0.8C67.89,38.18,68.95,37.77,67.9,37.53z"/>
				</g>
			</g>
			<g>
				<g>
					<path d="M70.42,45.79c-0.4,0.03-0.78-0.03-1.12,0.16c-0.03,0.18,0.09,0.28,0.18,0.43c-0.28,0.12-0.53,0.18-0.79,0.06
						c-0.05-0.05-0.19,0.01-0.21,0.04c0.01,0.28-0.29,0.2-0.38,0.39c0.06,0.12,0.14,0.21,0.27,0.2c0.16-0.01,0.15,0.18,0.29,0.19
						c0.69-0.31,1.5-0.24,2.09-0.77C70.52,46.31,70.47,46.05,70.42,45.79z"/>
				</g>
			</g>
			<g>
				<g>
					<path d="M93.22,68.05"/>
				</g>
				<g>
					<path class="st2" d="M93.22,68.05"/>
				</g>
			</g>
			<g>
				<g>
					<path d="M69.47,63.59"/>
				</g>
				<g>
					<path class="st2" d="M69.47,63.59"/>
				</g>
			</g>
			<g>
				<g>
					<path d="M79.67,38.72c-0.27-0.58-0.9-3.83-1.81-3.12c4.15,7.75,1.38,17.93-5.82,22.84c-2.11,1.27-4.73,3.39-7.23,1.98
						c1.61-6.28,9.34-3.63,11.02-15.61c-0.21-0.1-0.29-0.17-0.47-0.2c-0.24,1.67-0.66,3.28-1.29,4.83c0.67-1.78,0.24-7.37,0.37-7.67
						c-0.07-0.09-0.14-0.13-0.37-0.41c0.04,0.67,0,0.92,0,1.81H62.35V30.93h11.51v6.9c-0.01,0.04,0.04,0.37,0.07,0.49
						c0.16-0.25,0.18-0.24,0.29-0.32v-7.42H50.07l-0.02,6.25h0.36v-5.9h11.58v12.23H50.82c-0.03,0.03,0.01-0.19-0.03-0.16
						c0-0.03-0.08,0.19-0.08,0.16H50.4c-0.01-0.57,0.01-0.92,0.01-0.94l-0.36-0.01c-0.26,0.92,0.51,8.6,1.77,9.94
						c-2.52-2.44-3.32-6.78-2.84-10.05c0,0-0.24-0.18-0.49-0.42c-0.79,4.6,0.95,9.15,4.18,12.44c0.28,0.3,0.59-0.02,0.93-0.11
						c-0.07-0.07-0.22-0.19-0.33-0.34c0.13,0.13,0.24,0.25,0.33,0.34l-0.18-0.5c-2.53-1.94-2.95-7.47-3-10h11.59
						c0,0-0.01,15.34-0.02,15.38c-2.46-0.12-4.13-2.79-6.51-2.82c3.42,2.03,9.67,6.91,13.61,4.77c0.03,0.04,0.02,0.03,0.06,0.07
						c-0.41,0.52-1.88,1.5-2.53,1.25c-1.07-0.65-2.73,0.53-1.97,1.73c0.1,0.14,0.16,0.27,0.04,0.45c-4.27-0.4-8.11-2.95-11.7-5.14
						c-0.04,0.04-0.03,0.03-0.06,0.07c1.38,1.86,6.3,4.18,6.3,4.18l0,2.77c0,0,0.32,0.21,0.52,0.35v-2.99
						c1.29,0.44,3.91,1.26,3.91,1.26l0.01,1.87l0.5-0.32l-0.03-1.4l0.7-0.19c0.44-0.12,0.72-0.55,0.67-0.99
						c-0.21-0.1-0.35-0.32-0.29-0.61c0.1-0.55,0.76-0.56,1.03-0.23c0.54,0.24,1.06-0.4,1.59-0.56c0.74-0.45,1.66-0.85,2-1.7
						c0.07-0.21,0.18-0.34,0.36-0.45c1.5-0.85,2.95-1.79,4.17-3.02C79.59,52.82,81.41,45.22,79.67,38.72z M62.35,43.52h11.73
						c0.96,8.96-4.3,11.96-11.73,15.09V43.52z M62.56,59.53c0.83-0.74,1.4-1,2.47-1.25c-0.3,0.66-0.58,1.29-0.87,1.96
						C63.62,60.01,63.1,59.77,62.56,59.53z"/>
				</g>
			</g>
			<g>
				<g>
					<g>
						<path d="M51.46,60.39C51.46,60.39,51.46,60.39,51.46,60.39c-6.64,0.01-13.26,2.84-19.9,2.84c-0.8,0-1.59-0.04-2.39-0.13
							c2.06,1.62,1.91,4.88,4.91,4.88c0.13,0,0.27-0.01,0.41-0.02c4.07-0.43,8.11-1.58,12.11-2.22c0.69-0.1,4-0.92,5.94-0.92
							c0.7,0,1.22,0.11,1.38,0.39c0.21,0.38-1.11,1.49-1.12,1.54c0,0.01,0,0.02,0.02,0.02c0.13,0,0.86-0.42,1.4-0.78
							C56.39,64.44,51.85,60.39,51.46,60.39z M37.48,65.9c-0.36,0.86-1.44,1.05-2.28,1.2c0.04-0.27-0.47-2.75-0.63-2.98
							C36.03,63.5,38.12,64.11,37.48,65.9z M38.35,66.44c0.04-0.86-0.25-2.23-0.64-3l0.85-0.16c-0.04,0.86,0.25,2.23,0.64,3
							L38.35,66.44z M41.63,65.81l-1.76,0.34c0.02-0.45-0.55-2.78-0.7-3l1.88-0.36l-0.19,0.59c-0.25-0.07-0.55-0.07-0.89-0.01
							l0.2,0.88l1.01-0.22l0.16,0.43c-0.2-0.03-0.81,0.12-1.09,0.17l0.21,0.92c0.5-0.11,0.91-0.28,1.24-0.5l0.01,0.01L41.63,65.81z
							 M43.38,65.44c-1.27,0.03-1.57-1.81-1.76-2.76l0.58-0.11c0.29,0.78,0.26,2.68,1.57,2.44c0.79-0.21,0.24-2.04,0.06-2.74
							l0.54-0.12C44.6,63.35,45.23,65.56,43.38,65.44z M48.4,64.5l-1.72,0.33c0.03-0.26-0.59-2.76-0.74-2.98l1.86-0.35l-0.12,0.72
							c-0.25-0.07-0.55-0.07-0.89,0l0.21,0.88L48,62.87l0.17,0.43c-0.2-0.03-0.81,0.13-1.09,0.18l0.22,0.92
							c0.5-0.11,0.91-0.28,1.23-0.51l0.01,0.01L48.4,64.5z M50.25,61.58l0.5,2.52l-0.58,0.1l-0.51-2.51
							c-0.36,0.06-0.56,0.06-1.04,0.28l-0.02-0.56l2.51-0.32l0.17,0.48C51.05,61.48,50.25,61.58,50.25,61.58z"/>
						<path d="M36.39,64.46c-0.27-0.16-0.6-0.21-0.99-0.15c0.08,0.59,0.3,1.7,0.47,2.27C36.97,66.42,37.3,65.04,36.39,64.46z"/>
					</g>
				</g>
			</g>
			<g>
				<g>
					<g>
						<path d="M91.6,63.22c-0.83,0-1.62-0.01-2.01-0.05c-4.38-0.43-8.71-1.68-13.08-2.37c-1.26-0.2-2.29-0.39-3.18-0.39
							c-1.85,0-3.12,0.81-4.61,3.99c-0.64,1.21,1.5,2.36,1.97,2.41c-1.75-1.5-1.14-1.94,0.24-1.94c1.91,0,5.3,0.85,5.96,0.93
							c4,0.64,8.05,1.78,12.11,2.22c0.14,0.01,0.28,0.02,0.41,0.02c2.99,0,2.85-3.26,4.9-4.88C93.95,63.2,92.74,63.22,91.6,63.22z
							 M75.14,61.47c-0.1,0.09-0.45,2.58-0.43,2.82l-0.67-0.13c0.12-0.22,0.28-1.95,0.28-1.95l-1.15,1.78l-0.67-2.01
							c0,0-0.27,1.44-0.28,1.91l-0.66-0.09c0.21-0.34,0.62-2.89,0.62-2.89l0.68,0.13c0.02,0.14,0.53,1.87,0.53,1.87
							s0.9-1.51,0.96-1.59l0.8,0.15L75.14,61.47z M77.59,63.66c-0.6,2.04-2.95,0.92-2.25-0.89C75.93,60.8,78.29,61.84,77.59,63.66z
							 M79.91,65.45c-0.21-0.04-1.32-2.31-1.32-2.31s-0.27,1.76-0.34,1.88l-0.5-0.07l0.58-2.76l0.56,0.07
							c0,0.07,0.88,1.94,0.88,1.94s0.29-1.51,0.32-1.65l0.43,0.12L79.91,65.45z M82.53,65.69c-0.4,0.14-0.96-0.02-1.38-0.1
							l0.55-2.84C83.55,62.63,84.31,65.02,82.53,65.69z M85.8,64.38c-0.08,0.32-0.32,0.54-0.71,0.66c0.17,0.56,0.27,0.74,0.56,1.35
							l0,0.01l-0.45-0.07c-0.09-0.05-0.65-0.84-0.82-1.27c-0.1,0.35-0.2,0.8-0.16,1.12l-0.76-0.12c0.14-0.22,0.73-2.54,0.71-2.79
							C84.83,63.37,86,63.49,85.8,64.38z M87.25,66.63c-1.69,0.32-1.69-2.53-0.33-2.93C88.62,63.34,88.63,66.24,87.25,66.63z
							 M89.01,64.96c-0.07,0.51-0.3,1.53-0.21,2.01l-0.66-0.1c0.29-0.74,0.49-2,0.44-2.8l0.66,0.1
							C89.14,64.4,89.06,64.66,89.01,64.96z M90.57,64.84c0,0-0.39,2.19-0.36,2.37l-0.66-0.12c-0.01,0.01,0.4-1.92,0.5-2.34
							c-0.23-0.05-0.51-0.03-0.77,0.07l0-0.01l0.26-0.55l1.78,0.32l0.12,0.61C91.31,65.06,90.83,64.89,90.57,64.84z"/>
						<path d="M76.74,62.11c-1.04-0.29-1.44,1.86-0.57,2.23C77.24,64.62,77.62,62.49,76.74,62.11z"/>
						<path d="M82.23,63.19c-0.14,0.55-0.36,1.6-0.43,2.16C83.1,65.63,83.5,63.45,82.23,63.19z"/>
						<path d="M84.73,63.69l-0.3,1.1C85.27,64.95,85.64,63.83,84.73,63.69z"/>
						<path d="M87.33,64.08c-1-0.25-1.32,1.83-0.49,2.16C87.86,66.48,88.17,64.42,87.33,64.08z"/>
					</g>
				</g>
			</g>
		</g>
		<g>
			<g>
				<path d="M49.12,49.06c-0.11-0.28-0.29-0.51-0.54-0.68c-0.25-0.17-0.53-0.27-0.85-0.29c-0.32-0.02-0.64,0.03-0.96,0.17
					c-0.48,0.19-0.81,0.5-1,0.93c-0.19,0.43-0.19,0.85-0.01,1.26c0.11,0.27,0.29,0.49,0.54,0.66c0.25,0.17,0.54,0.26,0.86,0.29
					c0.32,0.02,0.63-0.03,0.92-0.16c0.29-0.12,0.53-0.29,0.74-0.52c0.2-0.23,0.34-0.5,0.4-0.79C49.28,49.64,49.24,49.35,49.12,49.06
					z M48.53,50.06c-0.19,0.32-0.47,0.55-0.83,0.7c-0.32,0.14-0.62,0.17-0.89,0.09c-0.28-0.08-0.46-0.24-0.56-0.47
					c-0.13-0.28-0.1-0.58,0.09-0.91c0.19-0.33,0.46-0.56,0.82-0.71c0.31-0.13,0.6-0.16,0.89-0.09c0.28,0.07,0.48,0.23,0.58,0.48
					C48.75,49.44,48.72,49.74,48.53,50.06z"/>
			</g>
		</g>
		<g>
			<g>
				<path d="M88.86,50.94l0.34-0.76c-0.18-0.26-0.33-0.51-0.51-0.77l-0.58,1.2c-0.32-0.11-0.67,0.03-0.81,0.35l-0.84,1.86
					c-0.14,0.31-0.01,0.67,0.28,0.84l-0.58,1.29h-0.02c-0.36,0-0.65,0.29-0.65,0.65v2.04c0,0.32,0.23,0.58,0.53,0.64v0.29
					c-0.78,0.18-1.36,0.89-1.36,1.72c0,0.98,0.79,1.77,1.77,1.77c0.98,0,1.77-0.79,1.77-1.77c0-0.84-0.58-1.54-1.36-1.72v-0.28h0.01
					c0.36,0,0.65-0.29,0.65-0.65V55.6c0-0.29-0.2-0.54-0.46-0.62l0.45-0.99c0.07,0.02,0.14,0.04,0.21,0.04
					c0.08,0,0.16-0.01,0.23-0.04c0.16-0.06,0.29-0.18,0.36-0.34l0.84-1.86c0.07-0.16,0.08-0.34,0.01-0.5
					C89.1,51.13,88.99,51.02,88.86,50.94z M87.55,60.29c0,0.61-0.5,1.11-1.11,1.11c-0.61,0-1.11-0.5-1.11-1.11
					c0-0.47,0.29-0.87,0.7-1.03v0.32c0,0.2,0.16,0.36,0.36,0.36h0.09c0.2,0,0.36-0.16,0.36-0.36v-0.32
					C87.26,59.42,87.55,59.82,87.55,60.29z M87.02,57.64c0,0.09-0.07,0.16-0.16,0.16h-0.01v-0.15c0-0.2-0.16-0.36-0.36-0.36H86.4
					c-0.2,0-0.36,0.16-0.36,0.36v0.09c-0.02-0.03-0.04-0.06-0.04-0.1V55.6c0-0.09,0.07-0.16,0.16-0.16h0.04
					c0.03,0.03,0.07,0.06,0.11,0.08l0.08,0.04c0.16,0.07,0.34,0.02,0.44-0.12h0.03c0.09,0,0.16,0.07,0.16,0.16V57.64z M88.69,51.57
					l-0.84,1.86c-0.02,0.04-0.05,0.07-0.09,0.08c-0.03,0.01-0.05,0.01-0.08,0.01c0.03-0.16-0.05-0.32-0.21-0.39L87.4,53.1
					c-0.15-0.07-0.33-0.02-0.43,0.11c-0.05-0.04-0.07-0.12-0.04-0.18l0.84-1.86c0.02-0.04,0.05-0.07,0.09-0.08
					c0.02-0.01,0.04-0.01,0.06-0.01c0.02,0,0.04,0,0.06,0.01l0.03,0.01c0.03,0.1,0.1,0.19,0.2,0.24l0.08,0.04
					c0.1,0.05,0.21,0.04,0.31-0.01l0.03,0.01c0.04,0.02,0.07,0.05,0.08,0.09C88.71,51.49,88.7,51.54,88.69,51.57z"/>
			</g>
		</g>
	</g>
</g>
</svg>
